<?xml version="1.0" standalone="no"?>
<svg
  width="600"
  height="600"
  viewBox="0 0 600 600"
  xmlns="http://www.w3.org/2000/svg"
>
  <g transform="translate(300,300)">
    <path d="M123.4,-196.3C152.3,-173.4,163,-126.4,176.6,-84.3C190.1,-42.2,206.4,-5.1,208.5,35.1C210.7,75.3,198.7,118.5,171.4,146.6C144.1,174.7,101.5,187.6,56.5,208C11.5,228.4,-36,256.2,-72.1,245.6C-108.2,235,-133.1,185.9,-153.5,143.5C-173.9,101.1,-189.9,65.4,-194.2,28.6C-198.5,-8.2,-191.1,-46.1,-173.5,-76.9C-155.8,-107.8,-127.9,-131.7,-97.3,-153.9C-66.7,-176.1,-33.3,-196.5,6.9,-207.3C47.2,-218.1,94.4,-219.3,123.4,-196.3Z" fill="#fcb900" />
  </g>
</svg>
    