<?xml version="1.0" encoding="utf-8"?>
<!-- Generator: Adobe Illustrator 26.5.0, SVG Export Plug-In . SVG Version: 6.00 Build 0)  -->
<svg version="1.1" id="Layer_1" xmlns="http://www.w3.org/2000/svg" xmlns:xlink="http://www.w3.org/1999/xlink" x="0px" y="0px"
	 viewBox="0 0 2500 595.3" style="enable-background:new 0 0 2500 595.3;" xml:space="preserve">
<style type="text/css">
	.st0{fill:#FFFFFF;}
</style>
<g>
	<polygon class="st0" points="326.6,45.6 125,242.4 274.6,434 375.1,432.3 476.2,342 426.3,285.9 345.8,357.7 310.7,358.4 
		225.7,249.2 357,120.8 503.9,120.8 637.5,296.4 637.5,172.6 540.8,45.6 	"/>
	<polygon class="st0" points="388.5,164 287.3,254.4 337.3,310.1 417.8,238.5 452.7,238 537.9,347.2 406.3,475.5 259.7,475.5 
		124.4,298 124.4,421.8 222.6,550.7 436.9,550.7 637.5,354.5 637.5,353 488.9,162.1 	"/>
	<path class="st0" d="M944,458v-64.1c-4.5,8.1-16.7,18.1-31.2,18.1h-54.2c-42,0-63.2-29.8-63.2-65.9v-96.2c0-36.1,23-64.1,65.9-64.1
		h107.5c8.1,0,14.5,6.8,14.5,14.5v256c0,36.6-29.8,65.9-65.9,65.9H809.9v-32.5c0-2.7,2.3-5,5-5h102.5C931.8,484.7,944,472.9,944,458
		L944,458L944,458z M834.7,249.9v98c0,14.5,5.9,26.6,24.8,26.6h62.3c11.7-1.8,21.2-11.3,22.1-23V228.2c0-2.7-2.3-5-5-5h-77.7
		C840.6,223.2,834.7,235.4,834.7,249.9L834.7,249.9z M1103,412c-36.6,0-65.9-29.4-65.9-65.9v-95.7c0-42,29.4-64.1,65.9-64.1h60.5
		c36.6,0,65.9,22.1,65.9,64.1v51.9c0,7.7-0.9,14-11.7,14H1094c-7.2,0-13.6-3.2-17.6-8.6v40.2c0,14.9,11.7,26.6,26.7,26.6h112
		c2.7,0,5,2.3,5,5V412L1103,412L1103,412L1103,412z M1164.9,223.2H1103c-14.9,0-26.7,8.6-26.7,26.6v24.4c0,2.7,1.8,4.5,4.5,5h105.2
		c2.7,0,5-2.3,5-5v-24.4C1191.1,231.8,1182.5,223.2,1164.9,223.2L1164.9,223.2L1164.9,223.2z M1410.6,186.2
		c36.6,0,65.9,29.4,65.9,65.9V412h-34.3c-2.7,0-5-2.3-5-5V249.9c0-14.5-11.7-26.6-26.7-26.6h-81.8c-2.7,0-5,2.3-5,5V407
		c0,2.7-2.3,5-5,5h-34.3V215.5c0-16.3,13.1-29.4,29.4-29.4H1410.6L1410.6,186.2L1410.6,186.2z M1598,412
		c-36.6,0-65.9-29.4-65.9-65.9v-95.7c0-42,29.4-64.1,65.9-64.1h60.5c36.6,0,65.9,22.1,65.9,64.1v51.9c0,7.7-0.9,14-11.7,14H1589
		c-7.2,0-13.6-3.2-17.6-8.6v40.2c0,14.9,11.7,26.6,26.7,26.6h112c2.7,0,5,2.3,5,5V412L1598,412L1598,412z M1659.9,223.2H1598
		c-14.9,0-26.7,8.6-26.7,26.6v24.4c0,2.7,1.8,4.5,4.5,5h105.2c2.7,0,5-2.3,5-5v-24.4C1686.1,231.8,1677.5,223.2,1659.9,223.2
		L1659.9,223.2z M1946.7,375.4V407c0,2.7-2.3,5-5,5H1771c-2.7,0-5-2.3-5-5v-17.6c0-8.6,3.2-16.3,8.1-22.1l122.4-139.5
		c0.4-0.5,0.9-1.4,0.9-2.3c0-1.8-1.4-3.2-3.2-3.2h-116.5v-31.6c0-2.7,2.3-4.5,5-4.5h155.8c2.7,0,5,1.8,5,4.5V216
		c0,8.6-3.2,16.3-8.1,22.1L1819.3,370c-1.4,1.4-1.4,3.2,0,4.5c0.5,0.9,1.3,0.9,1.8,0.9L1946.7,375.4L1946.7,375.4L1946.7,375.4z
		 M2036.6,186.2c2.7,0,5,1.8,5,4.5V412h-34.3c-2.7,0-5-2.3-5-5V186.2H2036.6L2036.6,186.2L2036.6,186.2z M2036.6,85c2.7,0,5,2.3,5,5
		v37h-34.3c-2.7,0-5-2.3-5-5V85H2036.6L2036.6,85z M2223.1,415.1h-59.6c-36.6,0-65.9-29.4-65.9-65.9V249c0-36.1,29.4-65.9,65.9-65.9
		h59.6c36.6,0,66.4,29.8,66.4,65.9v100.2C2289.5,385.8,2259.7,415.1,2223.1,415.1L2223.1,415.1z M2163.5,220.5
		c-14.9,0-26.7,12.2-26.7,26.6V351c0,14.9,11.7,27.1,26.7,27.1h59.6c14.9,0,27.1-12.2,27.1-27.1V247.2c0-14.5-12.2-26.6-27.1-26.6
		L2163.5,220.5L2163.5,220.5z"/>
</g>
</svg>
