<svg width="1200" height="800" viewBox="0 0 1200 800" fill="none" xmlns="http://www.w3.org/2000/svg">
<rect width="1200" height="800" fill="#8F6ECD"/>
<line x1="256.25" y1="52" x2="256.25" y2="112" stroke="white" stroke-width="0.5"/>
<path d="M270.818 93V69.7273H278.955C280.576 69.7273 281.913 70.0076 282.966 70.5682C284.019 71.1212 284.803 71.8674 285.318 72.8068C285.833 73.7386 286.091 74.7727 286.091 75.9091C286.091 76.9091 285.913 77.7348 285.557 78.3864C285.208 79.0379 284.746 79.553 284.17 79.9318C283.602 80.3106 282.985 80.5909 282.318 80.7727V81C283.03 81.0455 283.746 81.2955 284.466 81.75C285.186 82.2045 285.788 82.8561 286.273 83.7045C286.758 84.553 287 85.5909 287 86.8182C287 87.9848 286.735 89.0341 286.205 89.9659C285.674 90.8977 284.837 91.6364 283.693 92.1818C282.549 92.7273 281.061 93 279.227 93H270.818ZM273.636 90.5H279.227C281.068 90.5 282.375 90.1439 283.148 89.4318C283.928 88.7121 284.318 87.8409 284.318 86.8182C284.318 86.0303 284.117 85.303 283.716 84.6364C283.314 83.9621 282.742 83.4242 282 83.0227C281.258 82.6136 280.379 82.4091 279.364 82.4091H273.636V90.5ZM273.636 79.9545H278.864C279.712 79.9545 280.477 79.7879 281.159 79.4545C281.848 79.1212 282.394 78.6515 282.795 78.0455C283.205 77.4394 283.409 76.7273 283.409 75.9091C283.409 74.8864 283.053 74.0189 282.341 73.3068C281.629 72.5871 280.5 72.2273 278.955 72.2273H273.636V79.9545ZM293.949 69.7273V93H291.267V69.7273H293.949ZM305.952 93.3636C304.376 93.3636 302.993 92.9886 301.804 92.2386C300.622 91.4886 299.698 90.4394 299.031 89.0909C298.372 87.7424 298.043 86.1667 298.043 84.3636C298.043 82.5455 298.372 80.9583 299.031 79.6023C299.698 78.2462 300.622 77.1932 301.804 76.4432C302.993 75.6932 304.376 75.3182 305.952 75.3182C307.527 75.3182 308.906 75.6932 310.088 76.4432C311.277 77.1932 312.202 78.2462 312.861 79.6023C313.527 80.9583 313.861 82.5455 313.861 84.3636C313.861 86.1667 313.527 87.7424 312.861 89.0909C312.202 90.4394 311.277 91.4886 310.088 92.2386C308.906 92.9886 307.527 93.3636 305.952 93.3636ZM305.952 90.9545C307.149 90.9545 308.134 90.6477 308.906 90.0341C309.679 89.4205 310.251 88.6136 310.622 87.6136C310.993 86.6136 311.179 85.5303 311.179 84.3636C311.179 83.197 310.993 82.1098 310.622 81.1023C310.251 80.0947 309.679 79.2803 308.906 78.6591C308.134 78.0379 307.149 77.7273 305.952 77.7273C304.755 77.7273 303.77 78.0379 302.997 78.6591C302.224 79.2803 301.652 80.0947 301.281 81.1023C300.91 82.1098 300.724 83.197 300.724 84.3636C300.724 85.5303 300.91 86.6136 301.281 87.6136C301.652 88.6136 302.224 89.4205 302.997 90.0341C303.77 90.6477 304.755 90.9545 305.952 90.9545ZM325 99.9091C323.705 99.9091 322.591 99.7424 321.659 99.4091C320.727 99.0833 319.951 98.6515 319.33 98.1136C318.716 97.5833 318.227 97.0152 317.864 96.4091L320 94.9091C320.242 95.2273 320.549 95.5909 320.92 96C321.292 96.4167 321.799 96.7765 322.443 97.0795C323.095 97.3902 323.947 97.5455 325 97.5455C326.409 97.5455 327.572 97.2045 328.489 96.5227C329.405 95.8409 329.864 94.7727 329.864 93.3182V89.7727H329.636C329.439 90.0909 329.159 90.4848 328.795 90.9545C328.439 91.4167 327.924 91.8295 327.25 92.1932C326.583 92.5492 325.682 92.7273 324.545 92.7273C323.136 92.7273 321.871 92.3939 320.75 91.7273C319.636 91.0606 318.754 90.0909 318.102 88.8182C317.458 87.5455 317.136 86 317.136 84.1818C317.136 82.3939 317.451 80.8371 318.08 79.5114C318.708 78.178 319.583 77.1477 320.705 76.4205C321.826 75.6856 323.121 75.3182 324.591 75.3182C325.727 75.3182 326.629 75.5076 327.295 75.8864C327.97 76.2576 328.485 76.6818 328.841 77.1591C329.205 77.6288 329.485 78.0152 329.682 78.3182H329.955V75.5455H332.545V93.5C332.545 95 332.205 96.2197 331.523 97.1591C330.848 98.1061 329.939 98.7992 328.795 99.2386C327.659 99.6856 326.394 99.9091 325 99.9091ZM324.909 90.3182C325.985 90.3182 326.894 90.072 327.636 89.5795C328.379 89.0871 328.943 88.3788 329.33 87.4545C329.716 86.5303 329.909 85.4242 329.909 84.1364C329.909 82.8788 329.72 81.7689 329.341 80.8068C328.962 79.8447 328.402 79.0909 327.659 78.5455C326.917 78 326 77.7273 324.909 77.7273C323.773 77.7273 322.826 78.0152 322.068 78.5909C321.318 79.1667 320.754 79.9394 320.375 80.9091C320.004 81.8788 319.818 82.9545 319.818 84.1364C319.818 85.3485 320.008 86.4205 320.386 87.3523C320.773 88.2765 321.341 89.0038 322.091 89.5341C322.848 90.0568 323.788 90.3182 324.909 90.3182Z" fill="white"/>
<rect x="119.394" y="303.695" width="969.697" height="242.424" fill="#00FAA4" fill-opacity="0.5"/>
<rect x="100" y="254" width="969.697" height="242.424" fill="#00FAA4" fill-opacity="0.25"/>
<rect x="130.303" y="279.453" width="969.697" height="242.424" fill="#00FAA4" fill-opacity="0.75"/>
<path d="M134.147 74.1484H126.246C124.553 74.1484 123.133 74.6929 122.143 75.7191C121.205 76.6896 120.711 78.0139 120.711 79.5506V86.7249C120.711 88.248 121.186 89.6254 122.047 90.6026C123 91.6915 124.387 92.2618 126.045 92.2618H130.087C130.692 92.2537 131.282 92.0795 131.794 91.7582V95.0752C131.794 95.4372 131.651 95.7845 131.396 96.0414C131.141 96.2982 130.795 96.4436 130.433 96.4458H122.701C122.459 96.4458 122.228 96.5416 122.058 96.7121C121.887 96.8826 121.791 97.1139 121.791 97.355V100.486H130.43C131.159 100.486 131.88 100.343 132.553 100.065C133.226 99.7861 133.837 99.3775 134.352 98.8623C134.867 98.347 135.275 97.7353 135.552 97.062C135.83 96.3888 135.973 95.6674 135.971 94.9391V75.9669C135.971 75.7277 135.924 75.4908 135.832 75.2699C135.74 75.049 135.606 74.8484 135.436 74.6795C135.267 74.5106 135.066 74.3768 134.845 74.2857C134.624 74.1945 134.387 74.1479 134.147 74.1484ZM131.786 78.18V87.1019C131.75 87.3799 131.626 87.639 131.432 87.8408C131.237 88.0426 130.983 88.1763 130.707 88.2221H126.111C125.475 88.2221 124.887 88.0574 124.887 86.861V79.552C124.887 78.5652 125.266 78.1813 126.248 78.1813L131.786 78.18Z" fill="white"/>
<path d="M154.323 75.5317C153.343 74.6429 151.959 74.1543 150.425 74.1543H145.907C144.376 74.1543 142.993 74.6429 142.012 75.5304C140.938 76.5022 140.37 77.8946 140.37 79.5565V86.694C140.368 87.4216 140.51 88.1424 140.788 88.815C141.066 89.4876 141.473 90.0987 141.988 90.6132C142.502 91.1277 143.114 91.5355 143.786 91.8131C144.459 92.0907 145.18 92.2327 145.907 92.2309H155.262V89.1004C155.262 88.8592 155.166 88.6277 154.996 88.457C154.825 88.2863 154.594 88.1902 154.353 88.1898H145.914C145.734 88.1922 145.556 88.1587 145.389 88.0912C145.222 88.0238 145.071 87.9238 144.943 87.797C144.815 87.6703 144.714 87.5194 144.646 87.3531C144.577 87.1869 144.542 87.0086 144.543 86.8288V84.9899C144.768 85.0591 145.001 85.094 145.236 85.0934H154.462C155.959 85.0934 155.959 83.8398 155.959 83.4274V79.5578C155.962 77.8932 155.394 76.5008 154.323 75.5317ZM151.855 79.5115V81.0836H144.546V79.5115C144.546 79.0025 144.724 78.1505 145.917 78.1505H150.535C151.015 78.1505 151.36 78.2512 151.558 78.4513C151.757 78.6513 151.858 79.0134 151.855 79.5115Z" fill="white"/>
<path d="M162.409 74.1602C161.668 74.1602 160.958 74.4544 160.434 74.9782C159.91 75.502 159.616 76.2124 159.616 76.9531V92.23H162.883C163.124 92.23 163.355 92.1342 163.525 91.9637C163.696 91.7932 163.792 91.5619 163.792 91.3208V78.155H169.644C170.007 78.1543 170.354 78.2971 170.611 78.5523C170.868 78.8074 171.013 79.154 171.015 79.5161V91.3181C171.015 91.5592 171.111 91.7905 171.281 91.961C171.452 92.1315 171.683 92.2273 171.924 92.2273H175.191V79.6821C175.19 78.3928 174.742 77.1438 173.923 76.1482C173.104 75.1526 171.964 74.4721 170.699 74.2228C170.472 74.1802 170.241 74.1592 170.009 74.1602H162.409Z" fill="white"/>
<path d="M193.511 75.5317C192.53 74.6429 191.146 74.1543 189.613 74.1543H185.106C183.577 74.1543 182.194 74.6429 181.212 75.5304C180.139 76.5022 179.571 77.8946 179.571 79.5565V86.694C179.569 87.4215 179.711 88.1422 179.989 88.8147C180.266 89.4872 180.674 90.0982 181.188 90.6127C181.703 91.1272 182.313 91.535 182.986 91.8127C183.658 92.0904 184.379 92.2325 185.106 92.2309H194.461V89.1004C194.461 88.8592 194.366 88.6277 194.195 88.457C194.025 88.2863 193.793 88.1902 193.552 88.1898H185.106C184.927 88.1924 184.748 88.159 184.581 88.0916C184.414 88.0242 184.263 87.9242 184.135 87.7974C184.007 87.6707 183.906 87.5197 183.838 87.3534C183.769 87.187 183.735 87.0087 183.736 86.8288V84.9899C183.96 85.059 184.193 85.0939 184.427 85.0934H193.654C195.151 85.0934 195.151 83.8398 195.151 83.4274V79.5578C195.149 77.8932 194.582 76.5008 193.511 75.5317ZM183.729 79.5115C183.729 79.0025 183.907 78.1505 185.1 78.1505H189.716C190.198 78.1505 190.543 78.2512 190.741 78.4513C190.94 78.6513 191.045 79.012 191.042 79.5129V81.085H183.729V79.5115Z" fill="white"/>
<path d="M212.523 79.0493L212.531 79.0384C213.014 78.4676 213.28 77.7446 213.282 76.9968V75.1035C213.281 74.9755 213.253 74.849 213.202 74.7315C213.151 74.6141 213.077 74.5079 212.985 74.4193C212.892 74.3306 212.783 74.2612 212.664 74.2151C212.544 74.169 212.417 74.1472 212.289 74.1508H200.668C200.54 74.1472 200.412 74.169 200.293 74.2151C200.173 74.2612 200.064 74.3306 199.972 74.4193C199.879 74.5079 199.805 74.6141 199.754 74.7315C199.703 74.849 199.676 74.9755 199.674 75.1035V78.0802H208.144L199.56 87.8597L199.552 87.8692C199.07 88.4405 198.804 89.1633 198.802 89.9108V91.3087C198.802 91.5498 198.898 91.7811 199.068 91.9516C199.239 92.1221 199.47 92.2179 199.711 92.2179H212.611C212.731 92.2179 212.849 92.1944 212.959 92.1487C213.07 92.103 213.17 92.036 213.254 91.9516C213.339 91.8671 213.406 91.7669 213.451 91.6566C213.497 91.5463 213.521 91.4281 213.521 91.3087V88.2462H204.418L212.523 79.0493Z" fill="white"/>
<path d="M221.047 74.1469H217.868V91.3212C217.868 91.5623 217.964 91.7936 218.134 91.9641C218.305 92.1346 218.536 92.2304 218.777 92.2304H222.044V75.1038C222.043 74.9751 222.016 74.848 221.965 74.7299C221.914 74.6117 221.84 74.505 221.747 74.4159C221.654 74.3267 221.544 74.257 221.424 74.2109C221.304 74.1647 221.176 74.143 221.047 74.1469Z" fill="white"/>
<path d="M221.132 67.0508H217.865V70.5148C217.865 70.7559 217.961 70.9872 218.132 71.1577C218.302 71.3282 218.533 71.424 218.774 71.424H222.041V67.96C222.041 67.7189 221.945 67.4876 221.775 67.3171C221.604 67.1466 221.373 67.0508 221.132 67.0508Z" fill="#00FAA4"/>
<path d="M236.419 73.9161H231.974C231.247 73.9159 230.527 74.0589 229.855 74.337C229.184 74.6151 228.573 75.0229 228.059 75.5369C227.545 76.0509 227.137 76.6612 226.859 77.3329C226.581 78.0046 226.437 78.7245 226.437 79.4516V86.9253C226.435 87.653 226.577 88.3738 226.855 89.0463C227.133 89.7189 227.54 90.33 228.055 90.8445C228.57 91.359 229.181 91.7668 229.853 92.0444C230.526 92.3221 231.247 92.464 231.974 92.4622H236.419C237.894 92.4677 239.31 91.8875 240.356 90.8492C241.403 89.8109 241.994 88.3995 242 86.9253V79.4516C241.993 77.9777 241.402 76.5667 240.356 75.5287C239.309 74.4907 237.893 73.9106 236.419 73.9161ZM236.419 88.4606H231.974C231.792 88.4607 231.611 88.4243 231.443 88.3535C231.274 88.2828 231.122 88.1791 230.994 88.0487C230.867 87.9182 230.766 87.7636 230.699 87.5938C230.632 87.424 230.6 87.2426 230.604 87.0601V79.31C230.604 79.1306 230.639 78.953 230.708 78.7873C230.777 78.6216 230.878 78.4712 231.005 78.3447C231.132 78.2182 231.283 78.1181 231.449 78.0502C231.616 77.9823 231.793 77.9479 231.973 77.949H236.419C236.784 77.9492 237.134 78.0915 237.395 78.3456C237.657 78.5997 237.808 78.9457 237.819 79.31V87.0519C237.82 87.2364 237.784 87.4193 237.715 87.5901C237.645 87.7609 237.542 87.9162 237.412 88.0471C237.282 88.178 237.127 88.2819 236.957 88.3529C236.787 88.4238 236.604 88.4605 236.419 88.4606Z" fill="white"/>
<path d="M84.3777 94.628H91.9522C92.4328 94.6263 92.8933 94.4345 93.233 94.0945L99.0326 88.2949C99.1171 88.2104 99.1841 88.1102 99.2298 87.9998C99.2756 87.8895 99.2991 87.7712 99.2991 87.6518C99.2991 87.5323 99.2756 87.414 99.2298 87.3037C99.1841 87.1933 99.1171 87.0931 99.0326 87.0086L96.4724 84.4444C96.3879 84.3599 96.2877 84.2928 96.1773 84.2471C96.067 84.2014 95.9487 84.1778 95.8293 84.1778C95.7098 84.1778 95.5915 84.2014 95.4812 84.2471C95.3708 84.2928 95.2706 84.3599 95.1861 84.4444L90.9817 88.6488C90.8128 88.818 90.6121 88.9521 90.3911 89.0435C90.1701 89.1348 89.9333 89.1815 89.6942 89.1809H86.6317C86.3929 89.1811 86.1563 89.1341 85.9357 89.0428C85.715 88.9515 85.5144 88.8176 85.3455 88.6488L77.9738 81.2757C77.6344 80.9338 77.444 80.4714 77.4444 79.9895V79.8398C77.4447 79.3576 77.6361 78.8951 77.9765 78.5536L88.5522 67.9793C88.8906 67.6388 89.3502 67.4464 89.8303 67.4444H101.903C102.142 67.4442 102.378 67.4912 102.599 67.5825C102.82 67.6738 103.02 67.8077 103.189 67.9765L110.489 75.2774C110.616 75.4049 110.778 75.4918 110.955 75.527C111.131 75.5623 111.314 75.5443 111.481 75.4753C111.647 75.4063 111.789 75.2895 111.889 75.1397C111.989 74.9898 112.042 74.8137 112.042 74.6336V69.8698C112.042 69.3873 111.85 68.9246 111.508 68.5836L105.446 62.5322C105.105 62.1915 104.642 62.0001 104.16 62H87.5777C87.0954 62.0004 86.633 62.1917 86.2914 62.5322L72.5322 76.2914C72.1914 76.6333 72 77.0963 72 77.579V82.2503C71.9999 82.7326 72.1913 83.1952 72.5322 83.5365L83.0915 94.0958C83.4328 94.4367 83.8954 94.6281 84.3777 94.628Z" fill="white"/>
<path d="M99.6641 72.9004H92.0897C91.6075 72.9008 91.145 73.0921 90.8035 73.4326L85.0039 79.2335C84.9194 79.318 84.8523 79.4182 84.8066 79.5286C84.7609 79.6389 84.7374 79.7572 84.7374 79.8767C84.7374 79.9961 84.7609 80.1144 84.8066 80.2247C84.8523 80.3351 84.9194 80.4353 85.0039 80.5198L87.5695 83.0841C87.6539 83.1685 87.7542 83.2356 87.8646 83.2813C87.9749 83.327 88.0932 83.3506 88.2126 83.3506C88.3321 83.3506 88.4504 83.327 88.5607 83.2813C88.6711 83.2356 88.7713 83.1685 88.8557 83.0841L93.0601 78.8769C93.229 78.708 93.4295 78.574 93.6502 78.4827C93.8709 78.3914 94.1075 78.3445 94.3464 78.3447H97.4088C97.6477 78.3446 97.8842 78.3916 98.1049 78.4829C98.3256 78.5742 98.5261 78.7081 98.6951 78.8769L106.068 86.2499C106.409 86.5915 106.6 87.0539 106.6 87.5362V87.6859C106.6 88.1681 106.409 88.6306 106.068 88.9721L95.4924 99.5464C95.3237 99.7155 95.1231 99.8496 94.9024 99.9409C94.6817 100.032 94.4451 100.079 94.2062 100.079H82.1388C81.8992 100.08 81.6618 100.034 81.4401 99.9428C81.2184 99.8519 81.0169 99.7181 80.8471 99.5491L73.553 92.2483C73.4256 92.1205 73.2631 92.0335 73.0861 91.9984C72.9091 91.9633 72.7257 91.9817 72.5591 92.0511C72.3926 92.1206 72.2505 92.2381 72.151 92.3885C72.0514 92.539 71.9989 92.7157 72 92.8961V97.66C72.0003 98.1425 72.1922 98.6051 72.5336 98.9462L78.5959 104.996C78.9374 105.337 79.3998 105.528 79.8821 105.528H96.4642C96.9465 105.528 97.4089 105.337 97.7505 104.996L111.51 91.2356C111.85 90.8941 112.042 90.4316 112.042 89.9494V85.274C112.042 84.7917 111.851 84.3291 111.51 83.9878L100.95 73.4326C100.609 73.0917 100.146 72.9003 99.6641 72.9004Z" fill="white"/>
<path d="M195.597 365.091H202.977V387.761C202.977 390.307 202.369 392.534 201.153 394.443C199.949 396.352 198.261 397.841 196.091 398.909C193.92 399.966 191.392 400.494 188.506 400.494C185.608 400.494 183.074 399.966 180.903 398.909C178.733 397.841 177.045 396.352 175.841 394.443C174.636 392.534 174.034 390.307 174.034 387.761V365.091H181.415V387.131C181.415 388.46 181.705 389.642 182.284 390.676C182.875 391.71 183.705 392.523 184.773 393.114C185.841 393.705 187.085 394 188.506 394C189.938 394 191.182 393.705 192.239 393.114C193.307 392.523 194.131 391.71 194.71 390.676C195.301 389.642 195.597 388.46 195.597 387.131V365.091ZM230.697 381.284L224.05 381.693C223.936 381.125 223.692 380.614 223.317 380.159C222.942 379.693 222.447 379.324 221.834 379.051C221.232 378.767 220.51 378.625 219.669 378.625C218.544 378.625 217.595 378.864 216.822 379.341C216.05 379.807 215.663 380.432 215.663 381.216C215.663 381.841 215.913 382.369 216.413 382.801C216.913 383.233 217.771 383.58 218.987 383.841L223.726 384.795C226.271 385.318 228.169 386.159 229.419 387.318C230.669 388.477 231.294 390 231.294 391.886C231.294 393.602 230.788 395.108 229.777 396.403C228.777 397.699 227.402 398.71 225.652 399.438C223.913 400.153 221.908 400.511 219.635 400.511C216.169 400.511 213.408 399.79 211.351 398.347C209.305 396.892 208.107 394.915 207.754 392.415L214.896 392.04C215.112 393.097 215.635 393.903 216.464 394.46C217.294 395.006 218.357 395.278 219.652 395.278C220.925 395.278 221.947 395.034 222.72 394.545C223.504 394.045 223.902 393.403 223.913 392.619C223.902 391.96 223.624 391.42 223.078 391C222.533 390.568 221.692 390.239 220.555 390.011L216.021 389.108C213.464 388.597 211.561 387.71 210.311 386.449C209.072 385.187 208.453 383.58 208.453 381.625C208.453 379.943 208.908 378.494 209.817 377.278C210.737 376.062 212.027 375.125 213.686 374.466C215.357 373.807 217.311 373.477 219.55 373.477C222.857 373.477 225.459 374.176 227.357 375.574C229.266 376.972 230.379 378.875 230.697 381.284ZM247.798 400.511C245.105 400.511 242.787 399.966 240.844 398.875C238.912 397.773 237.423 396.216 236.378 394.205C235.332 392.182 234.81 389.79 234.81 387.028C234.81 384.335 235.332 381.972 236.378 379.938C237.423 377.903 238.895 376.318 240.793 375.182C242.702 374.045 244.94 373.477 247.509 373.477C249.236 373.477 250.844 373.756 252.332 374.312C253.832 374.858 255.139 375.682 256.253 376.784C257.378 377.886 258.253 379.273 258.878 380.943C259.503 382.602 259.815 384.545 259.815 386.773V388.767H237.707V384.267H252.98C252.98 383.222 252.753 382.295 252.298 381.489C251.844 380.682 251.213 380.051 250.406 379.597C249.611 379.131 248.685 378.898 247.628 378.898C246.526 378.898 245.548 379.153 244.696 379.665C243.855 380.165 243.196 380.841 242.719 381.693C242.241 382.534 241.997 383.472 241.986 384.506V388.784C241.986 390.08 242.224 391.199 242.702 392.142C243.19 393.085 243.878 393.812 244.764 394.324C245.651 394.835 246.702 395.091 247.918 395.091C248.724 395.091 249.463 394.977 250.134 394.75C250.804 394.523 251.378 394.182 251.855 393.727C252.332 393.273 252.696 392.716 252.946 392.057L259.662 392.5C259.321 394.114 258.622 395.523 257.565 396.727C256.52 397.92 255.168 398.852 253.509 399.523C251.861 400.182 249.957 400.511 247.798 400.511ZM275.8 400V365.091H289.777C292.345 365.091 294.487 365.472 296.203 366.233C297.919 366.994 299.209 368.051 300.072 369.403C300.936 370.744 301.368 372.29 301.368 374.04C301.368 375.403 301.095 376.602 300.55 377.636C300.004 378.659 299.254 379.5 298.3 380.159C297.357 380.807 296.277 381.267 295.061 381.54V381.881C296.391 381.937 297.635 382.312 298.794 383.006C299.964 383.699 300.913 384.67 301.641 385.92C302.368 387.159 302.732 388.636 302.732 390.352C302.732 392.205 302.271 393.858 301.351 395.312C300.442 396.756 299.095 397.898 297.311 398.739C295.527 399.58 293.328 400 290.714 400H275.8ZM283.18 393.966H289.197C291.254 393.966 292.754 393.574 293.697 392.79C294.641 391.994 295.112 390.937 295.112 389.619C295.112 388.653 294.879 387.801 294.413 387.062C293.947 386.324 293.283 385.744 292.419 385.324C291.567 384.903 290.55 384.693 289.368 384.693H283.18V393.966ZM283.18 379.699H288.652C289.663 379.699 290.561 379.523 291.345 379.17C292.141 378.807 292.766 378.295 293.22 377.636C293.686 376.977 293.919 376.188 293.919 375.267C293.919 374.006 293.47 372.989 292.572 372.216C291.686 371.443 290.425 371.057 288.788 371.057H283.18V379.699ZM314.659 365.091V400H307.398V365.091H314.659ZM327.942 400.494C326.271 400.494 324.783 400.205 323.476 399.625C322.169 399.034 321.135 398.165 320.374 397.017C319.624 395.858 319.249 394.415 319.249 392.688C319.249 391.233 319.516 390.011 320.05 389.023C320.584 388.034 321.311 387.239 322.232 386.636C323.152 386.034 324.197 385.58 325.368 385.273C326.55 384.966 327.788 384.75 329.084 384.625C330.607 384.466 331.834 384.318 332.766 384.182C333.697 384.034 334.374 383.818 334.794 383.534C335.214 383.25 335.425 382.83 335.425 382.273V382.17C335.425 381.091 335.084 380.256 334.402 379.665C333.732 379.074 332.777 378.778 331.538 378.778C330.232 378.778 329.192 379.068 328.419 379.648C327.646 380.216 327.135 380.932 326.885 381.795L320.169 381.25C320.51 379.659 321.18 378.284 322.18 377.125C323.18 375.955 324.47 375.057 326.05 374.432C327.641 373.795 329.482 373.477 331.572 373.477C333.027 373.477 334.419 373.648 335.749 373.989C337.089 374.33 338.277 374.858 339.311 375.574C340.357 376.29 341.18 377.21 341.783 378.335C342.385 379.449 342.686 380.784 342.686 382.341V400H335.8V396.369H335.595C335.175 397.188 334.612 397.909 333.908 398.534C333.203 399.148 332.357 399.631 331.368 399.983C330.379 400.324 329.237 400.494 327.942 400.494ZM330.021 395.483C331.089 395.483 332.033 395.273 332.851 394.852C333.669 394.42 334.311 393.841 334.777 393.114C335.243 392.386 335.476 391.562 335.476 390.642V387.864C335.249 388.011 334.936 388.148 334.538 388.273C334.152 388.386 333.714 388.494 333.226 388.597C332.737 388.687 332.249 388.773 331.76 388.852C331.271 388.92 330.828 388.983 330.43 389.04C329.578 389.165 328.834 389.364 328.197 389.636C327.561 389.909 327.067 390.278 326.714 390.744C326.362 391.199 326.186 391.767 326.186 392.449C326.186 393.438 326.544 394.193 327.26 394.716C327.987 395.227 328.908 395.483 330.021 395.483ZM370.104 381.284L363.456 381.693C363.342 381.125 363.098 380.614 362.723 380.159C362.348 379.693 361.854 379.324 361.24 379.051C360.638 378.767 359.916 378.625 359.075 378.625C357.95 378.625 357.001 378.864 356.229 379.341C355.456 379.807 355.07 380.432 355.07 381.216C355.07 381.841 355.32 382.369 355.82 382.801C356.32 383.233 357.178 383.58 358.393 383.841L363.132 384.795C365.678 385.318 367.575 386.159 368.825 387.318C370.075 388.477 370.7 390 370.7 391.886C370.7 393.602 370.195 395.108 369.183 396.403C368.183 397.699 366.808 398.71 365.058 399.438C363.32 400.153 361.314 400.511 359.041 400.511C355.575 400.511 352.814 399.79 350.757 398.347C348.712 396.892 347.513 394.915 347.161 392.415L354.303 392.04C354.518 393.097 355.041 393.903 355.871 394.46C356.7 395.006 357.763 395.278 359.058 395.278C360.331 395.278 361.354 395.034 362.126 394.545C362.911 394.045 363.308 393.403 363.32 392.619C363.308 391.96 363.03 391.42 362.484 391C361.939 390.568 361.098 390.239 359.962 390.011L355.428 389.108C352.871 388.597 350.967 387.71 349.717 386.449C348.479 385.187 347.859 383.58 347.859 381.625C347.859 379.943 348.314 378.494 349.223 377.278C350.143 376.062 351.433 375.125 353.092 374.466C354.763 373.807 356.717 373.477 358.956 373.477C362.263 373.477 364.865 374.176 366.763 375.574C368.672 376.972 369.786 378.875 370.104 381.284ZM389.199 373.818V379.273H373.432V373.818H389.199ZM377.011 367.545H384.273V391.955C384.273 392.625 384.375 393.148 384.58 393.523C384.784 393.886 385.068 394.142 385.432 394.29C385.807 394.437 386.239 394.511 386.727 394.511C387.068 394.511 387.409 394.483 387.75 394.426C388.091 394.358 388.352 394.307 388.534 394.273L389.676 399.676C389.313 399.79 388.801 399.92 388.142 400.068C387.483 400.227 386.682 400.324 385.739 400.358C383.989 400.426 382.455 400.193 381.136 399.659C379.83 399.125 378.813 398.295 378.085 397.17C377.358 396.045 377 394.625 377.011 392.909V367.545ZM411.192 400H403.283L415.334 365.091H424.845L436.879 400H428.97L420.226 373.068H419.953L411.192 400ZM410.697 386.278H429.379V392.04H410.697V386.278ZM441.081 400V365.091H454.854C457.501 365.091 459.757 365.597 461.621 366.608C463.484 367.608 464.905 369 465.882 370.784C466.871 372.557 467.365 374.602 467.365 376.92C467.365 379.239 466.865 381.284 465.865 383.057C464.865 384.83 463.416 386.21 461.518 387.199C459.632 388.187 457.348 388.682 454.666 388.682H445.888V382.767H453.473C454.893 382.767 456.064 382.523 456.984 382.034C457.916 381.534 458.609 380.847 459.064 379.972C459.53 379.085 459.763 378.068 459.763 376.92C459.763 375.761 459.53 374.75 459.064 373.886C458.609 373.011 457.916 372.335 456.984 371.858C456.053 371.369 454.871 371.125 453.439 371.125H448.462V400H441.081ZM479.54 365.091V400H472.159V365.091H479.54ZM493.368 395.227L493.18 397.102C493.033 398.602 492.749 400.097 492.328 401.585C491.919 403.085 491.487 404.443 491.033 405.659C490.589 406.875 490.232 407.83 489.959 408.523H485.254C485.425 407.852 485.658 406.915 485.953 405.71C486.249 404.517 486.527 403.176 486.788 401.688C487.05 400.199 487.214 398.682 487.283 397.136L487.368 395.227H493.368ZM521.271 410.364C518.919 410.364 516.902 410.04 515.22 409.392C513.55 408.756 512.22 407.886 511.232 406.784C510.243 405.682 509.601 404.443 509.305 403.068L516.021 402.165C516.226 402.688 516.55 403.176 516.993 403.631C517.436 404.085 518.021 404.449 518.749 404.722C519.487 405.006 520.385 405.148 521.442 405.148C523.021 405.148 524.322 404.761 525.345 403.989C526.379 403.227 526.896 401.949 526.896 400.153V395.364H526.589C526.271 396.091 525.794 396.778 525.158 397.426C524.521 398.074 523.703 398.602 522.703 399.011C521.703 399.42 520.51 399.625 519.124 399.625C517.158 399.625 515.368 399.17 513.754 398.261C512.152 397.341 510.874 395.937 509.919 394.051C508.976 392.153 508.504 389.756 508.504 386.858C508.504 383.892 508.987 381.415 509.953 379.426C510.919 377.437 512.203 375.949 513.805 374.96C515.419 373.972 517.186 373.477 519.107 373.477C520.572 373.477 521.8 373.727 522.788 374.227C523.777 374.716 524.572 375.33 525.175 376.068C525.788 376.795 526.26 377.511 526.589 378.216H526.862V373.818H534.072V400.256C534.072 402.483 533.527 404.347 532.436 405.847C531.345 407.347 529.834 408.472 527.902 409.222C525.982 409.983 523.771 410.364 521.271 410.364ZM521.425 394.17C522.595 394.17 523.584 393.881 524.391 393.301C525.209 392.71 525.834 391.869 526.266 390.778C526.709 389.676 526.93 388.358 526.93 386.824C526.93 385.29 526.714 383.96 526.283 382.835C525.851 381.699 525.226 380.818 524.408 380.193C523.589 379.568 522.595 379.256 521.425 379.256C520.232 379.256 519.226 379.58 518.408 380.227C517.589 380.864 516.97 381.75 516.55 382.886C516.129 384.023 515.919 385.335 515.919 386.824C515.919 388.335 516.129 389.642 516.55 390.744C516.982 391.835 517.601 392.682 518.408 393.284C519.226 393.875 520.232 394.17 521.425 394.17ZM551.783 400.511C549.089 400.511 546.771 399.966 544.828 398.875C542.896 397.773 541.408 396.216 540.362 394.205C539.317 392.182 538.794 389.79 538.794 387.028C538.794 384.335 539.317 381.972 540.362 379.938C541.408 377.903 542.879 376.318 544.777 375.182C546.686 374.045 548.925 373.477 551.493 373.477C553.22 373.477 554.828 373.756 556.317 374.312C557.817 374.858 559.124 375.682 560.237 376.784C561.362 377.886 562.237 379.273 562.862 380.943C563.487 382.602 563.8 384.545 563.8 386.773V388.767H541.692V384.267H556.964C556.964 383.222 556.737 382.295 556.283 381.489C555.828 380.682 555.197 380.051 554.391 379.597C553.595 379.131 552.669 378.898 551.612 378.898C550.51 378.898 549.533 379.153 548.68 379.665C547.839 380.165 547.18 380.841 546.703 381.693C546.226 382.534 545.982 383.472 545.97 384.506V388.784C545.97 390.08 546.209 391.199 546.686 392.142C547.175 393.085 547.862 393.812 548.749 394.324C549.635 394.835 550.686 395.091 551.902 395.091C552.709 395.091 553.447 394.977 554.118 394.75C554.788 394.523 555.362 394.182 555.839 393.727C556.317 393.273 556.68 392.716 556.93 392.057L563.646 392.5C563.305 394.114 562.607 395.523 561.55 396.727C560.504 397.92 559.152 398.852 557.493 399.523C555.845 400.182 553.942 400.511 551.783 400.511ZM575.8 384.864V400H568.538V373.818H575.459V378.438H575.766C576.345 376.915 577.317 375.71 578.68 374.824C580.044 373.926 581.697 373.477 583.641 373.477C585.459 373.477 587.044 373.875 588.396 374.67C589.749 375.466 590.8 376.602 591.55 378.08C592.3 379.545 592.675 381.295 592.675 383.33V400H585.413V384.625C585.425 383.023 585.016 381.773 584.186 380.875C583.357 379.966 582.214 379.511 580.76 379.511C579.783 379.511 578.919 379.722 578.169 380.142C577.43 380.562 576.851 381.176 576.43 381.983C576.021 382.778 575.811 383.739 575.8 384.864ZM610.33 400.511C607.636 400.511 605.318 399.966 603.375 398.875C601.443 397.773 599.955 396.216 598.909 394.205C597.864 392.182 597.341 389.79 597.341 387.028C597.341 384.335 597.864 381.972 598.909 379.938C599.955 377.903 601.426 376.318 603.324 375.182C605.233 374.045 607.472 373.477 610.04 373.477C611.767 373.477 613.375 373.756 614.864 374.312C616.364 374.858 617.67 375.682 618.784 376.784C619.909 377.886 620.784 379.273 621.409 380.943C622.034 382.602 622.347 384.545 622.347 386.773V388.767H600.239V384.267H615.511C615.511 383.222 615.284 382.295 614.83 381.489C614.375 380.682 613.744 380.051 612.938 379.597C612.142 379.131 611.216 378.898 610.159 378.898C609.057 378.898 608.08 379.153 607.227 379.665C606.386 380.165 605.727 380.841 605.25 381.693C604.773 382.534 604.528 383.472 604.517 384.506V388.784C604.517 390.08 604.756 391.199 605.233 392.142C605.722 393.085 606.409 393.812 607.295 394.324C608.182 394.835 609.233 395.091 610.449 395.091C611.256 395.091 611.994 394.977 612.665 394.75C613.335 394.523 613.909 394.182 614.386 393.727C614.864 393.273 615.227 392.716 615.477 392.057L622.193 392.5C621.852 394.114 621.153 395.523 620.097 396.727C619.051 397.92 617.699 398.852 616.04 399.523C614.392 400.182 612.489 400.511 610.33 400.511ZM626.949 400V395.67L639.767 379.801V379.614H627.392V373.818H648.511V378.54L636.477 394.017V394.205H648.955V400H626.949ZM654.507 400V373.818H661.768V400H654.507ZM658.155 370.443C657.075 370.443 656.149 370.085 655.376 369.369C654.615 368.642 654.234 367.773 654.234 366.761C654.234 365.761 654.615 364.903 655.376 364.188C656.149 363.46 657.075 363.097 658.155 363.097C659.234 363.097 660.155 363.46 660.916 364.188C661.689 364.903 662.075 365.761 662.075 366.761C662.075 367.773 661.689 368.642 660.916 369.369C660.155 370.085 659.234 370.443 658.155 370.443ZM679.415 400.511C676.767 400.511 674.477 399.949 672.545 398.824C670.625 397.687 669.142 396.108 668.097 394.085C667.051 392.051 666.528 389.693 666.528 387.011C666.528 384.307 667.051 381.943 668.097 379.92C669.142 377.886 670.625 376.307 672.545 375.182C674.477 374.045 676.767 373.477 679.415 373.477C682.062 373.477 684.347 374.045 686.267 375.182C688.199 376.307 689.688 377.886 690.733 379.92C691.778 381.943 692.301 384.307 692.301 387.011C692.301 389.693 691.778 392.051 690.733 394.085C689.688 396.108 688.199 397.687 686.267 398.824C684.347 399.949 682.062 400.511 679.415 400.511ZM679.449 394.886C680.653 394.886 681.659 394.545 682.466 393.864C683.273 393.17 683.881 392.227 684.29 391.034C684.71 389.841 684.92 388.483 684.92 386.96C684.92 385.438 684.71 384.08 684.29 382.886C683.881 381.693 683.273 380.75 682.466 380.057C681.659 379.364 680.653 379.017 679.449 379.017C678.233 379.017 677.21 379.364 676.381 380.057C675.563 380.75 674.943 381.693 674.523 382.886C674.114 384.08 673.909 385.438 673.909 386.96C673.909 388.483 674.114 389.841 674.523 391.034C674.943 392.227 675.563 393.17 676.381 393.864C677.21 394.545 678.233 394.886 679.449 394.886ZM715.598 400.494C713.928 400.494 712.439 400.205 711.132 399.625C709.825 399.034 708.791 398.165 708.03 397.017C707.28 395.858 706.905 394.415 706.905 392.688C706.905 391.233 707.172 390.011 707.706 389.023C708.24 388.034 708.967 387.239 709.888 386.636C710.808 386.034 711.854 385.58 713.024 385.273C714.206 384.966 715.445 384.75 716.74 384.625C718.263 384.466 719.49 384.318 720.422 384.182C721.354 384.034 722.03 383.818 722.45 383.534C722.871 383.25 723.081 382.83 723.081 382.273V382.17C723.081 381.091 722.74 380.256 722.058 379.665C721.388 379.074 720.433 378.778 719.195 378.778C717.888 378.778 716.848 379.068 716.075 379.648C715.303 380.216 714.791 380.932 714.541 381.795L707.825 381.25C708.166 379.659 708.837 378.284 709.837 377.125C710.837 375.955 712.126 375.057 713.706 374.432C715.297 373.795 717.138 373.477 719.229 373.477C720.683 373.477 722.075 373.648 723.405 373.989C724.746 374.33 725.933 374.858 726.967 375.574C728.013 376.29 728.837 377.21 729.439 378.335C730.041 379.449 730.342 380.784 730.342 382.341V400H723.456V396.369H723.251C722.831 397.188 722.268 397.909 721.564 398.534C720.859 399.148 720.013 399.631 719.024 399.983C718.036 400.324 716.893 400.494 715.598 400.494ZM717.678 395.483C718.746 395.483 719.689 395.273 720.507 394.852C721.325 394.42 721.967 393.841 722.433 393.114C722.899 392.386 723.132 391.562 723.132 390.642V387.864C722.905 388.011 722.592 388.148 722.195 388.273C721.808 388.386 721.371 388.494 720.882 388.597C720.393 388.687 719.905 388.773 719.416 388.852C718.928 388.92 718.484 388.983 718.087 389.04C717.234 389.165 716.49 389.364 715.854 389.636C715.217 389.909 714.723 390.278 714.371 390.744C714.018 391.199 713.842 391.767 713.842 392.449C713.842 393.438 714.2 394.193 714.916 394.716C715.643 395.227 716.564 395.483 717.678 395.483ZM743.237 384.864V400H735.976V373.818H742.896V378.438H743.203C743.783 376.915 744.754 375.71 746.118 374.824C747.482 373.926 749.135 373.477 751.078 373.477C752.896 373.477 754.482 373.875 755.834 374.67C757.186 375.466 758.237 376.602 758.987 378.08C759.737 379.545 760.112 381.295 760.112 383.33V400H752.851V384.625C752.862 383.023 752.453 381.773 751.624 380.875C750.794 379.966 749.652 379.511 748.197 379.511C747.22 379.511 746.357 379.722 745.607 380.142C744.868 380.562 744.288 381.176 743.868 381.983C743.459 382.778 743.249 383.739 743.237 384.864ZM775.483 400.426C773.494 400.426 771.693 399.915 770.08 398.892C768.477 397.858 767.205 396.341 766.261 394.341C765.33 392.33 764.864 389.864 764.864 386.943C764.864 383.943 765.347 381.449 766.312 379.46C767.278 377.46 768.563 375.966 770.165 374.977C771.778 373.977 773.545 373.477 775.466 373.477C776.932 373.477 778.153 373.727 779.131 374.227C780.119 374.716 780.915 375.33 781.517 376.068C782.131 376.795 782.597 377.511 782.915 378.216H783.136V365.091H790.381V400H783.222V395.807H782.915C782.574 396.534 782.091 397.256 781.466 397.972C780.852 398.676 780.051 399.261 779.062 399.727C778.085 400.193 776.892 400.426 775.483 400.426ZM777.784 394.648C778.955 394.648 779.943 394.33 780.75 393.693C781.568 393.045 782.193 392.142 782.625 390.983C783.068 389.824 783.29 388.466 783.29 386.909C783.29 385.352 783.074 384 782.642 382.852C782.21 381.705 781.585 380.818 780.767 380.193C779.949 379.568 778.955 379.256 777.784 379.256C776.591 379.256 775.585 379.58 774.767 380.227C773.949 380.875 773.33 381.773 772.909 382.92C772.489 384.068 772.278 385.398 772.278 386.909C772.278 388.432 772.489 389.778 772.909 390.949C773.341 392.108 773.96 393.017 774.767 393.676C775.585 394.324 776.591 394.648 777.784 394.648ZM807.597 400V365.091H821.369C824.006 365.091 826.256 365.562 828.119 366.506C829.994 367.437 831.42 368.761 832.398 370.477C833.386 372.182 833.881 374.187 833.881 376.494C833.881 378.812 833.381 380.807 832.381 382.477C831.381 384.136 829.932 385.409 828.034 386.295C826.148 387.182 823.864 387.625 821.182 387.625H811.96V381.693H819.989C821.398 381.693 822.568 381.5 823.5 381.114C824.432 380.727 825.125 380.148 825.58 379.375C826.045 378.602 826.278 377.642 826.278 376.494C826.278 375.335 826.045 374.358 825.58 373.562C825.125 372.767 824.426 372.165 823.483 371.756C822.551 371.335 821.375 371.125 819.955 371.125H814.977V400H807.597ZM826.449 384.114L835.125 400H826.977L818.489 384.114H826.449ZM850.47 400.511C847.777 400.511 845.459 399.966 843.516 398.875C841.584 397.773 840.095 396.216 839.05 394.205C838.004 392.182 837.482 389.79 837.482 387.028C837.482 384.335 838.004 381.972 839.05 379.938C840.095 377.903 841.567 376.318 843.464 375.182C845.374 374.045 847.612 373.477 850.18 373.477C851.908 373.477 853.516 373.756 855.004 374.312C856.504 374.858 857.811 375.682 858.925 376.784C860.05 377.886 860.925 379.273 861.55 380.943C862.175 382.602 862.487 384.545 862.487 386.773V388.767H840.379V384.267H855.652C855.652 383.222 855.425 382.295 854.97 381.489C854.516 380.682 853.885 380.051 853.078 379.597C852.283 379.131 851.357 378.898 850.3 378.898C849.197 378.898 848.22 379.153 847.368 379.665C846.527 380.165 845.868 380.841 845.391 381.693C844.913 382.534 844.669 383.472 844.658 384.506V388.784C844.658 390.08 844.896 391.199 845.374 392.142C845.862 393.085 846.55 393.812 847.436 394.324C848.322 394.835 849.374 395.091 850.589 395.091C851.396 395.091 852.135 394.977 852.805 394.75C853.476 394.523 854.05 394.182 854.527 393.727C855.004 393.273 855.368 392.716 855.618 392.057L862.334 392.5C861.993 394.114 861.294 395.523 860.237 396.727C859.192 397.92 857.839 398.852 856.18 399.523C854.533 400.182 852.629 400.511 850.47 400.511ZM874.692 400.494C873.021 400.494 871.533 400.205 870.226 399.625C868.919 399.034 867.885 398.165 867.124 397.017C866.374 395.858 865.999 394.415 865.999 392.688C865.999 391.233 866.266 390.011 866.8 389.023C867.334 388.034 868.061 387.239 868.982 386.636C869.902 386.034 870.947 385.58 872.118 385.273C873.3 384.966 874.538 384.75 875.834 384.625C877.357 384.466 878.584 384.318 879.516 384.182C880.447 384.034 881.124 383.818 881.544 383.534C881.964 383.25 882.175 382.83 882.175 382.273V382.17C882.175 381.091 881.834 380.256 881.152 379.665C880.482 379.074 879.527 378.778 878.288 378.778C876.982 378.778 875.942 379.068 875.169 379.648C874.396 380.216 873.885 380.932 873.635 381.795L866.919 381.25C867.26 379.659 867.93 378.284 868.93 377.125C869.93 375.955 871.22 375.057 872.8 374.432C874.391 373.795 876.232 373.477 878.322 373.477C879.777 373.477 881.169 373.648 882.499 373.989C883.839 374.33 885.027 374.858 886.061 375.574C887.107 376.29 887.93 377.21 888.533 378.335C889.135 379.449 889.436 380.784 889.436 382.341V400H882.55V396.369H882.345C881.925 397.188 881.362 397.909 880.658 398.534C879.953 399.148 879.107 399.631 878.118 399.983C877.129 400.324 875.987 400.494 874.692 400.494ZM876.771 395.483C877.839 395.483 878.783 395.273 879.601 394.852C880.419 394.42 881.061 393.841 881.527 393.114C881.993 392.386 882.226 391.562 882.226 390.642V387.864C881.999 388.011 881.686 388.148 881.288 388.273C880.902 388.386 880.464 388.494 879.976 388.597C879.487 388.687 878.999 388.773 878.51 388.852C878.021 388.92 877.578 388.983 877.18 389.04C876.328 389.165 875.584 389.364 874.947 389.636C874.311 389.909 873.817 390.278 873.464 390.744C873.112 391.199 872.936 391.767 872.936 392.449C872.936 393.438 873.294 394.193 874.01 394.716C874.737 395.227 875.658 395.483 876.771 395.483ZM906.899 400.511C904.217 400.511 901.911 399.943 899.979 398.807C898.058 397.659 896.581 396.068 895.547 394.034C894.524 392 894.013 389.659 894.013 387.011C894.013 384.33 894.53 381.977 895.564 379.955C896.609 377.92 898.092 376.335 900.013 375.199C901.933 374.051 904.217 373.477 906.865 373.477C909.149 373.477 911.149 373.892 912.865 374.722C914.581 375.551 915.939 376.716 916.939 378.216C917.939 379.716 918.49 381.477 918.592 383.5H911.74C911.547 382.193 911.036 381.142 910.206 380.347C909.388 379.54 908.314 379.136 906.984 379.136C905.859 379.136 904.876 379.443 904.036 380.057C903.206 380.659 902.558 381.54 902.092 382.699C901.626 383.858 901.393 385.261 901.393 386.909C901.393 388.58 901.621 390 902.075 391.17C902.541 392.341 903.195 393.233 904.036 393.847C904.876 394.46 905.859 394.767 906.984 394.767C907.814 394.767 908.558 394.597 909.217 394.256C909.888 393.915 910.439 393.42 910.871 392.773C911.314 392.114 911.604 391.324 911.74 390.403H918.592C918.479 392.403 917.933 394.165 916.956 395.688C915.99 397.199 914.655 398.381 912.95 399.233C911.246 400.085 909.229 400.511 906.899 400.511ZM937.168 373.818V379.273H921.401V373.818H937.168ZM924.98 367.545H932.241V391.955C932.241 392.625 932.344 393.148 932.548 393.523C932.753 393.886 933.037 394.142 933.401 394.29C933.776 394.437 934.207 394.511 934.696 394.511C935.037 394.511 935.378 394.483 935.719 394.426C936.06 394.358 936.321 394.307 936.503 394.273L937.645 399.676C937.281 399.79 936.77 399.92 936.111 400.068C935.452 400.227 934.651 400.324 933.707 400.358C931.957 400.426 930.423 400.193 929.105 399.659C927.798 399.125 926.781 398.295 926.054 397.17C925.327 396.045 924.969 394.625 924.98 392.909V367.545ZM966.933 373.818V379.273H951.166V373.818H966.933ZM954.746 367.545H962.007V391.955C962.007 392.625 962.109 393.148 962.314 393.523C962.518 393.886 962.803 394.142 963.166 394.29C963.541 394.437 963.973 394.511 964.462 394.511C964.803 394.511 965.143 394.483 965.484 394.426C965.825 394.358 966.087 394.307 966.268 394.273L967.411 399.676C967.047 399.79 966.536 399.92 965.876 400.068C965.217 400.227 964.416 400.324 963.473 400.358C961.723 400.426 960.189 400.193 958.871 399.659C957.564 399.125 956.547 398.295 955.82 397.17C955.092 396.045 954.734 394.625 954.746 392.909V367.545ZM983.212 400.511C980.564 400.511 978.274 399.949 976.342 398.824C974.422 397.687 972.939 396.108 971.893 394.085C970.848 392.051 970.325 389.693 970.325 387.011C970.325 384.307 970.848 381.943 971.893 379.92C972.939 377.886 974.422 376.307 976.342 375.182C978.274 374.045 980.564 373.477 983.212 373.477C985.859 373.477 988.143 374.045 990.064 375.182C991.996 376.307 993.484 377.886 994.53 379.92C995.575 381.943 996.098 384.307 996.098 387.011C996.098 389.693 995.575 392.051 994.53 394.085C993.484 396.108 991.996 397.687 990.064 398.824C988.143 399.949 985.859 400.511 983.212 400.511ZM983.246 394.886C984.45 394.886 985.456 394.545 986.263 393.864C987.07 393.17 987.678 392.227 988.087 391.034C988.507 389.841 988.717 388.483 988.717 386.96C988.717 385.438 988.507 384.08 988.087 382.886C987.678 381.693 987.07 380.75 986.263 380.057C985.456 379.364 984.45 379.017 983.246 379.017C982.03 379.017 981.007 379.364 980.178 380.057C979.359 380.75 978.74 381.693 978.32 382.886C977.911 384.08 977.706 385.438 977.706 386.96C977.706 388.483 977.911 389.841 978.32 391.034C978.74 392.227 979.359 393.17 980.178 393.864C981.007 394.545 982.03 394.886 983.246 394.886ZM185.727 458.511C183.045 458.511 180.739 457.943 178.807 456.807C176.886 455.659 175.409 454.068 174.375 452.034C173.352 450 172.841 447.659 172.841 445.011C172.841 442.33 173.358 439.977 174.392 437.955C175.438 435.92 176.92 434.335 178.841 433.199C180.761 432.051 183.045 431.477 185.693 431.477C187.977 431.477 189.977 431.892 191.693 432.722C193.409 433.551 194.767 434.716 195.767 436.216C196.767 437.716 197.318 439.477 197.42 441.5H190.568C190.375 440.193 189.864 439.142 189.034 438.347C188.216 437.54 187.142 437.136 185.812 437.136C184.688 437.136 183.705 437.443 182.864 438.057C182.034 438.659 181.386 439.54 180.92 440.699C180.455 441.858 180.222 443.261 180.222 444.909C180.222 446.58 180.449 448 180.903 449.17C181.369 450.341 182.023 451.233 182.864 451.847C183.705 452.46 184.688 452.767 185.812 452.767C186.642 452.767 187.386 452.597 188.045 452.256C188.716 451.915 189.267 451.42 189.699 450.773C190.142 450.114 190.432 449.324 190.568 448.403H197.42C197.307 450.403 196.761 452.165 195.784 453.688C194.818 455.199 193.483 456.381 191.778 457.233C190.074 458.085 188.057 458.511 185.727 458.511ZM202.07 458V431.818H209.109V436.386H209.382C209.859 434.761 210.661 433.534 211.786 432.705C212.911 431.864 214.206 431.443 215.672 431.443C216.036 431.443 216.428 431.466 216.848 431.511C217.268 431.557 217.638 431.619 217.956 431.699V438.142C217.615 438.04 217.143 437.949 216.541 437.869C215.939 437.79 215.388 437.75 214.888 437.75C213.82 437.75 212.865 437.983 212.024 438.449C211.195 438.903 210.536 439.54 210.047 440.358C209.57 441.176 209.331 442.119 209.331 443.188V458H202.07ZM232.423 458.511C229.73 458.511 227.412 457.966 225.469 456.875C223.537 455.773 222.048 454.216 221.003 452.205C219.957 450.182 219.435 447.79 219.435 445.028C219.435 442.335 219.957 439.972 221.003 437.938C222.048 435.903 223.52 434.318 225.418 433.182C227.327 432.045 229.565 431.477 232.134 431.477C233.861 431.477 235.469 431.756 236.957 432.312C238.457 432.858 239.764 433.682 240.878 434.784C242.003 435.886 242.878 437.273 243.503 438.943C244.128 440.602 244.44 442.545 244.44 444.773V446.767H222.332V442.267H237.605C237.605 441.222 237.378 440.295 236.923 439.489C236.469 438.682 235.838 438.051 235.031 437.597C234.236 437.131 233.31 436.898 232.253 436.898C231.151 436.898 230.173 437.153 229.321 437.665C228.48 438.165 227.821 438.841 227.344 439.693C226.866 440.534 226.622 441.472 226.611 442.506V446.784C226.611 448.08 226.849 449.199 227.327 450.142C227.815 451.085 228.503 451.812 229.389 452.324C230.276 452.835 231.327 453.091 232.543 453.091C233.349 453.091 234.088 452.977 234.759 452.75C235.429 452.523 236.003 452.182 236.48 451.727C236.957 451.273 237.321 450.716 237.571 450.057L244.287 450.5C243.946 452.114 243.247 453.523 242.19 454.727C241.145 455.92 239.793 456.852 238.134 457.523C236.486 458.182 234.582 458.511 232.423 458.511ZM256.645 458.494C254.974 458.494 253.486 458.205 252.179 457.625C250.872 457.034 249.838 456.165 249.077 455.017C248.327 453.858 247.952 452.415 247.952 450.688C247.952 449.233 248.219 448.011 248.753 447.023C249.287 446.034 250.014 445.239 250.935 444.636C251.855 444.034 252.901 443.58 254.071 443.273C255.253 442.966 256.491 442.75 257.787 442.625C259.31 442.466 260.537 442.318 261.469 442.182C262.401 442.034 263.077 441.818 263.497 441.534C263.918 441.25 264.128 440.83 264.128 440.273V440.17C264.128 439.091 263.787 438.256 263.105 437.665C262.435 437.074 261.48 436.778 260.241 436.778C258.935 436.778 257.895 437.068 257.122 437.648C256.349 438.216 255.838 438.932 255.588 439.795L248.872 439.25C249.213 437.659 249.884 436.284 250.884 435.125C251.884 433.955 253.173 433.057 254.753 432.432C256.344 431.795 258.185 431.477 260.276 431.477C261.73 431.477 263.122 431.648 264.452 431.989C265.793 432.33 266.98 432.858 268.014 433.574C269.06 434.29 269.884 435.21 270.486 436.335C271.088 437.449 271.389 438.784 271.389 440.341V458H264.503V454.369H264.298C263.878 455.188 263.315 455.909 262.611 456.534C261.906 457.148 261.06 457.631 260.071 457.983C259.082 458.324 257.94 458.494 256.645 458.494ZM258.724 453.483C259.793 453.483 260.736 453.273 261.554 452.852C262.372 452.42 263.014 451.841 263.48 451.114C263.946 450.386 264.179 449.562 264.179 448.642V445.864C263.952 446.011 263.639 446.148 263.241 446.273C262.855 446.386 262.418 446.494 261.929 446.597C261.44 446.687 260.952 446.773 260.463 446.852C259.974 446.92 259.531 446.983 259.134 447.04C258.281 447.165 257.537 447.364 256.901 447.636C256.264 447.909 255.77 448.278 255.418 448.744C255.065 449.199 254.889 449.767 254.889 450.449C254.889 451.438 255.247 452.193 255.963 452.716C256.69 453.227 257.611 453.483 258.724 453.483ZM290.949 431.818V437.273H275.182V431.818H290.949ZM278.761 425.545H286.023V449.955C286.023 450.625 286.125 451.148 286.33 451.523C286.534 451.886 286.818 452.142 287.182 452.29C287.557 452.437 287.989 452.511 288.477 452.511C288.818 452.511 289.159 452.483 289.5 452.426C289.841 452.358 290.102 452.307 290.284 452.273L291.426 457.676C291.063 457.79 290.551 457.92 289.892 458.068C289.233 458.227 288.432 458.324 287.489 458.358C285.739 458.426 284.205 458.193 282.886 457.659C281.58 457.125 280.563 456.295 279.835 455.17C279.108 454.045 278.75 452.625 278.761 450.909V425.545ZM307.33 458.511C304.636 458.511 302.318 457.966 300.375 456.875C298.443 455.773 296.955 454.216 295.909 452.205C294.864 450.182 294.341 447.79 294.341 445.028C294.341 442.335 294.864 439.972 295.909 437.938C296.955 435.903 298.426 434.318 300.324 433.182C302.233 432.045 304.472 431.477 307.04 431.477C308.767 431.477 310.375 431.756 311.864 432.312C313.364 432.858 314.67 433.682 315.784 434.784C316.909 435.886 317.784 437.273 318.409 438.943C319.034 440.602 319.347 442.545 319.347 444.773V446.767H297.239V442.267H312.511C312.511 441.222 312.284 440.295 311.83 439.489C311.375 438.682 310.744 438.051 309.938 437.597C309.142 437.131 308.216 436.898 307.159 436.898C306.057 436.898 305.08 437.153 304.227 437.665C303.386 438.165 302.727 438.841 302.25 439.693C301.773 440.534 301.528 441.472 301.517 442.506V446.784C301.517 448.08 301.756 449.199 302.233 450.142C302.722 451.085 303.409 451.812 304.295 452.324C305.182 452.835 306.233 453.091 307.449 453.091C308.256 453.091 308.994 452.977 309.665 452.75C310.335 452.523 310.909 452.182 311.386 451.727C311.864 451.273 312.227 450.716 312.477 450.057L319.193 450.5C318.852 452.114 318.153 453.523 317.097 454.727C316.051 455.92 314.699 456.852 313.04 457.523C311.392 458.182 309.489 458.511 307.33 458.511ZM342.661 458.494C340.99 458.494 339.501 458.205 338.195 457.625C336.888 457.034 335.854 456.165 335.092 455.017C334.342 453.858 333.967 452.415 333.967 450.688C333.967 449.233 334.234 448.011 334.768 447.023C335.303 446.034 336.03 445.239 336.95 444.636C337.871 444.034 338.916 443.58 340.087 443.273C341.268 442.966 342.507 442.75 343.803 442.625C345.325 442.466 346.553 442.318 347.484 442.182C348.416 442.034 349.092 441.818 349.513 441.534C349.933 441.25 350.143 440.83 350.143 440.273V440.17C350.143 439.091 349.803 438.256 349.121 437.665C348.45 437.074 347.496 436.778 346.257 436.778C344.95 436.778 343.911 437.068 343.138 437.648C342.365 438.216 341.854 438.932 341.604 439.795L334.888 439.25C335.229 437.659 335.899 436.284 336.899 435.125C337.899 433.955 339.189 433.057 340.768 432.432C342.359 431.795 344.2 431.477 346.291 431.477C347.746 431.477 349.138 431.648 350.467 431.989C351.808 432.33 352.996 432.858 354.03 433.574C355.075 434.29 355.899 435.21 356.501 436.335C357.104 437.449 357.405 438.784 357.405 440.341V458H350.518V454.369H350.314C349.893 455.188 349.331 455.909 348.626 456.534C347.922 457.148 347.075 457.631 346.087 457.983C345.098 458.324 343.956 458.494 342.661 458.494ZM344.74 453.483C345.808 453.483 346.751 453.273 347.57 452.852C348.388 452.42 349.03 451.841 349.496 451.114C349.962 450.386 350.195 449.562 350.195 448.642V445.864C349.967 446.011 349.655 446.148 349.257 446.273C348.871 446.386 348.433 446.494 347.945 446.597C347.456 446.687 346.967 446.773 346.479 446.852C345.99 446.92 345.547 446.983 345.149 447.04C344.297 447.165 343.553 447.364 342.916 447.636C342.28 447.909 341.786 448.278 341.433 448.744C341.081 449.199 340.905 449.767 340.905 450.449C340.905 451.438 341.263 452.193 341.979 452.716C342.706 453.227 343.626 453.483 344.74 453.483ZM393.222 433.131C393.085 431.756 392.5 430.687 391.466 429.926C390.432 429.165 389.028 428.784 387.256 428.784C386.051 428.784 385.034 428.955 384.205 429.295C383.375 429.625 382.739 430.085 382.295 430.676C381.864 431.267 381.648 431.938 381.648 432.688C381.625 433.312 381.756 433.858 382.04 434.324C382.335 434.79 382.739 435.193 383.25 435.534C383.761 435.864 384.352 436.153 385.023 436.403C385.693 436.642 386.409 436.847 387.17 437.017L390.307 437.767C391.83 438.108 393.227 438.562 394.5 439.131C395.773 439.699 396.875 440.398 397.807 441.227C398.739 442.057 399.46 443.034 399.972 444.159C400.494 445.284 400.761 446.574 400.773 448.028C400.761 450.165 400.216 452.017 399.136 453.585C398.068 455.142 396.523 456.352 394.5 457.216C392.489 458.068 390.063 458.494 387.222 458.494C384.403 458.494 381.949 458.062 379.858 457.199C377.778 456.335 376.153 455.057 374.983 453.364C373.824 451.659 373.216 449.551 373.159 447.04H380.301C380.381 448.21 380.716 449.187 381.307 449.972C381.909 450.744 382.71 451.33 383.71 451.727C384.722 452.114 385.864 452.307 387.136 452.307C388.386 452.307 389.472 452.125 390.392 451.761C391.324 451.398 392.045 450.892 392.557 450.244C393.068 449.597 393.324 448.852 393.324 448.011C393.324 447.227 393.091 446.568 392.625 446.034C392.17 445.5 391.5 445.045 390.614 444.67C389.739 444.295 388.665 443.955 387.392 443.648L383.591 442.693C380.648 441.977 378.324 440.858 376.619 439.335C374.915 437.812 374.068 435.761 374.08 433.182C374.068 431.068 374.631 429.222 375.767 427.642C376.915 426.062 378.489 424.83 380.489 423.943C382.489 423.057 384.761 422.614 387.307 422.614C389.898 422.614 392.159 423.057 394.091 423.943C396.034 424.83 397.545 426.062 398.625 427.642C399.705 429.222 400.261 431.051 400.295 433.131H393.222ZM405.601 458V431.818H412.521V436.438H412.828C413.374 434.903 414.283 433.693 415.555 432.807C416.828 431.92 418.351 431.477 420.124 431.477C421.919 431.477 423.447 431.926 424.709 432.824C425.97 433.71 426.811 434.915 427.232 436.438H427.504C428.038 434.938 429.004 433.739 430.402 432.841C431.811 431.932 433.476 431.477 435.396 431.477C437.839 431.477 439.822 432.256 441.345 433.812C442.879 435.358 443.646 437.551 443.646 440.392V458H436.402V441.824C436.402 440.369 436.016 439.278 435.243 438.551C434.47 437.824 433.504 437.46 432.345 437.46C431.027 437.46 429.999 437.881 429.26 438.722C428.521 439.551 428.152 440.648 428.152 442.011V458H421.112V441.67C421.112 440.386 420.743 439.364 420.004 438.602C419.277 437.841 418.317 437.46 417.124 437.46C416.317 437.46 415.589 437.665 414.942 438.074C414.305 438.472 413.8 439.034 413.425 439.761C413.05 440.477 412.862 441.318 412.862 442.284V458H405.601ZM456.848 458.494C455.178 458.494 453.689 458.205 452.382 457.625C451.075 457.034 450.041 456.165 449.28 455.017C448.53 453.858 448.155 452.415 448.155 450.688C448.155 449.233 448.422 448.011 448.956 447.023C449.49 446.034 450.217 445.239 451.138 444.636C452.058 444.034 453.104 443.58 454.274 443.273C455.456 442.966 456.695 442.75 457.99 442.625C459.513 442.466 460.74 442.318 461.672 442.182C462.604 442.034 463.28 441.818 463.7 441.534C464.121 441.25 464.331 440.83 464.331 440.273V440.17C464.331 439.091 463.99 438.256 463.308 437.665C462.638 437.074 461.683 436.778 460.445 436.778C459.138 436.778 458.098 437.068 457.325 437.648C456.553 438.216 456.041 438.932 455.791 439.795L449.075 439.25C449.416 437.659 450.087 436.284 451.087 435.125C452.087 433.955 453.376 433.057 454.956 432.432C456.547 431.795 458.388 431.477 460.479 431.477C461.933 431.477 463.325 431.648 464.655 431.989C465.996 432.33 467.183 432.858 468.217 433.574C469.263 434.29 470.087 435.21 470.689 436.335C471.291 437.449 471.592 438.784 471.592 440.341V458H464.706V454.369H464.501C464.081 455.188 463.518 455.909 462.814 456.534C462.109 457.148 461.263 457.631 460.274 457.983C459.286 458.324 458.143 458.494 456.848 458.494ZM458.928 453.483C459.996 453.483 460.939 453.273 461.757 452.852C462.575 452.42 463.217 451.841 463.683 451.114C464.149 450.386 464.382 449.562 464.382 448.642V445.864C464.155 446.011 463.842 446.148 463.445 446.273C463.058 446.386 462.621 446.494 462.132 446.597C461.643 446.687 461.155 446.773 460.666 446.852C460.178 446.92 459.734 446.983 459.337 447.04C458.484 447.165 457.74 447.364 457.104 447.636C456.467 447.909 455.973 448.278 455.621 448.744C455.268 449.199 455.092 449.767 455.092 450.449C455.092 451.438 455.45 452.193 456.166 452.716C456.893 453.227 457.814 453.483 458.928 453.483ZM477.226 458V431.818H484.266V436.386H484.538C485.016 434.761 485.817 433.534 486.942 432.705C488.067 431.864 489.362 431.443 490.828 431.443C491.192 431.443 491.584 431.466 492.004 431.511C492.425 431.557 492.794 431.619 493.112 431.699V438.142C492.771 438.04 492.3 437.949 491.697 437.869C491.095 437.79 490.544 437.75 490.044 437.75C488.976 437.75 488.021 437.983 487.18 438.449C486.351 438.903 485.692 439.54 485.203 440.358C484.726 441.176 484.487 442.119 484.487 443.188V458H477.226ZM512.105 431.818V437.273H496.338V431.818H512.105ZM499.918 425.545H507.179V449.955C507.179 450.625 507.281 451.148 507.486 451.523C507.69 451.886 507.974 452.142 508.338 452.29C508.713 452.437 509.145 452.511 509.634 452.511C509.974 452.511 510.315 452.483 510.656 452.426C510.997 452.358 511.259 452.307 511.44 452.273L512.582 457.676C512.219 457.79 511.707 457.92 511.048 458.068C510.389 458.227 509.588 458.324 508.645 458.358C506.895 458.426 505.361 458.193 504.043 457.659C502.736 457.125 501.719 456.295 500.991 455.17C500.264 454.045 499.906 452.625 499.918 450.909V425.545ZM558.882 435.312H551.416C551.28 434.347 551.001 433.489 550.581 432.739C550.161 431.977 549.621 431.33 548.962 430.795C548.303 430.261 547.541 429.852 546.678 429.568C545.825 429.284 544.899 429.142 543.899 429.142C542.092 429.142 540.518 429.591 539.178 430.489C537.837 431.375 536.797 432.67 536.058 434.375C535.32 436.068 534.95 438.125 534.95 440.545C534.95 443.034 535.32 445.125 536.058 446.818C536.808 448.511 537.854 449.79 539.195 450.653C540.536 451.517 542.087 451.949 543.848 451.949C544.837 451.949 545.751 451.818 546.592 451.557C547.445 451.295 548.2 450.915 548.859 450.415C549.518 449.903 550.064 449.284 550.496 448.557C550.939 447.83 551.246 447 551.416 446.068L558.882 446.102C558.689 447.705 558.206 449.25 557.433 450.739C556.672 452.216 555.643 453.54 554.348 454.71C553.064 455.869 551.53 456.79 549.746 457.472C547.973 458.142 545.967 458.477 543.729 458.477C540.615 458.477 537.831 457.773 535.376 456.364C532.933 454.955 531.001 452.915 529.581 450.244C528.172 447.574 527.467 444.341 527.467 440.545C527.467 436.739 528.183 433.5 529.615 430.83C531.047 428.159 532.99 426.125 535.445 424.727C537.899 423.318 540.661 422.614 543.729 422.614C545.751 422.614 547.626 422.898 549.354 423.466C551.092 424.034 552.632 424.864 553.973 425.955C555.314 427.034 556.405 428.358 557.246 429.926C558.098 431.494 558.643 433.29 558.882 435.312ZM575.868 458.511C573.22 458.511 570.93 457.949 568.999 456.824C567.078 455.687 565.595 454.108 564.55 452.085C563.504 450.051 562.982 447.693 562.982 445.011C562.982 442.307 563.504 439.943 564.55 437.92C565.595 435.886 567.078 434.307 568.999 433.182C570.93 432.045 573.22 431.477 575.868 431.477C578.516 431.477 580.8 432.045 582.72 433.182C584.652 434.307 586.141 435.886 587.186 437.92C588.232 439.943 588.754 442.307 588.754 445.011C588.754 447.693 588.232 450.051 587.186 452.085C586.141 454.108 584.652 455.687 582.72 456.824C580.8 457.949 578.516 458.511 575.868 458.511ZM575.902 452.886C577.107 452.886 578.112 452.545 578.919 451.864C579.726 451.17 580.334 450.227 580.743 449.034C581.163 447.841 581.374 446.483 581.374 444.96C581.374 443.438 581.163 442.08 580.743 440.886C580.334 439.693 579.726 438.75 578.919 438.057C578.112 437.364 577.107 437.017 575.902 437.017C574.686 437.017 573.663 437.364 572.834 438.057C572.016 438.75 571.396 439.693 570.976 440.886C570.567 442.08 570.362 443.438 570.362 444.96C570.362 446.483 570.567 447.841 570.976 449.034C571.396 450.227 572.016 451.17 572.834 451.864C573.663 452.545 574.686 452.886 575.902 452.886ZM600.737 442.864V458H593.476V431.818H600.396V436.438H600.703C601.283 434.915 602.254 433.71 603.618 432.824C604.982 431.926 606.635 431.477 608.578 431.477C610.396 431.477 611.982 431.875 613.334 432.67C614.686 433.466 615.737 434.602 616.487 436.08C617.237 437.545 617.612 439.295 617.612 441.33V458H610.351V442.625C610.362 441.023 609.953 439.773 609.124 438.875C608.294 437.966 607.152 437.511 605.697 437.511C604.72 437.511 603.857 437.722 603.107 438.142C602.368 438.562 601.788 439.176 601.368 439.983C600.959 440.778 600.749 441.739 600.737 442.864ZM637.261 431.818V437.273H621.494V431.818H637.261ZM625.074 425.545H632.335V449.955C632.335 450.625 632.438 451.148 632.642 451.523C632.847 451.886 633.131 452.142 633.494 452.29C633.869 452.437 634.301 452.511 634.79 452.511C635.131 452.511 635.472 452.483 635.812 452.426C636.153 452.358 636.415 452.307 636.597 452.273L637.739 457.676C637.375 457.79 636.864 457.92 636.205 458.068C635.545 458.227 634.744 458.324 633.801 458.358C632.051 458.426 630.517 458.193 629.199 457.659C627.892 457.125 626.875 456.295 626.148 455.17C625.42 454.045 625.063 452.625 625.074 450.909V425.545ZM641.991 458V431.818H649.031V436.386H649.304C649.781 434.761 650.582 433.534 651.707 432.705C652.832 431.864 654.128 431.443 655.594 431.443C655.957 431.443 656.349 431.466 656.77 431.511C657.19 431.557 657.56 431.619 657.878 431.699V438.142C657.537 438.04 657.065 437.949 656.463 437.869C655.861 437.79 655.31 437.75 654.81 437.75C653.741 437.75 652.787 437.983 651.946 438.449C651.116 438.903 650.457 439.54 649.969 440.358C649.491 441.176 649.253 442.119 649.253 443.188V458H641.991ZM668.348 458.494C666.678 458.494 665.189 458.205 663.882 457.625C662.575 457.034 661.541 456.165 660.78 455.017C660.03 453.858 659.655 452.415 659.655 450.688C659.655 449.233 659.922 448.011 660.456 447.023C660.99 446.034 661.717 445.239 662.638 444.636C663.558 444.034 664.604 443.58 665.774 443.273C666.956 442.966 668.195 442.75 669.49 442.625C671.013 442.466 672.24 442.318 673.172 442.182C674.104 442.034 674.78 441.818 675.2 441.534C675.621 441.25 675.831 440.83 675.831 440.273V440.17C675.831 439.091 675.49 438.256 674.808 437.665C674.138 437.074 673.183 436.778 671.945 436.778C670.638 436.778 669.598 437.068 668.825 437.648C668.053 438.216 667.541 438.932 667.291 439.795L660.575 439.25C660.916 437.659 661.587 436.284 662.587 435.125C663.587 433.955 664.876 433.057 666.456 432.432C668.047 431.795 669.888 431.477 671.979 431.477C673.433 431.477 674.825 431.648 676.155 431.989C677.496 432.33 678.683 432.858 679.717 433.574C680.763 434.29 681.587 435.21 682.189 436.335C682.791 437.449 683.092 438.784 683.092 440.341V458H676.206V454.369H676.001C675.581 455.188 675.018 455.909 674.314 456.534C673.609 457.148 672.763 457.631 671.774 457.983C670.786 458.324 669.643 458.494 668.348 458.494ZM670.428 453.483C671.496 453.483 672.439 453.273 673.257 452.852C674.075 452.42 674.717 451.841 675.183 451.114C675.649 450.386 675.882 449.562 675.882 448.642V445.864C675.655 446.011 675.342 446.148 674.945 446.273C674.558 446.386 674.121 446.494 673.632 446.597C673.143 446.687 672.655 446.773 672.166 446.852C671.678 446.92 671.234 446.983 670.837 447.04C669.984 447.165 669.24 447.364 668.604 447.636C667.967 447.909 667.473 448.278 667.121 448.744C666.768 449.199 666.592 449.767 666.592 450.449C666.592 451.438 666.95 452.193 667.666 452.716C668.393 453.227 669.314 453.483 670.428 453.483ZM700.555 458.511C697.874 458.511 695.567 457.943 693.635 456.807C691.714 455.659 690.237 454.068 689.203 452.034C688.18 450 687.669 447.659 687.669 445.011C687.669 442.33 688.186 439.977 689.22 437.955C690.266 435.92 691.749 434.335 693.669 433.199C695.589 432.051 697.874 431.477 700.521 431.477C702.805 431.477 704.805 431.892 706.521 432.722C708.237 433.551 709.595 434.716 710.595 436.216C711.595 437.716 712.146 439.477 712.249 441.5H705.396C705.203 440.193 704.692 439.142 703.862 438.347C703.044 437.54 701.97 437.136 700.641 437.136C699.516 437.136 698.533 437.443 697.692 438.057C696.862 438.659 696.214 439.54 695.749 440.699C695.283 441.858 695.05 443.261 695.05 444.909C695.05 446.58 695.277 448 695.732 449.17C696.197 450.341 696.851 451.233 697.692 451.847C698.533 452.46 699.516 452.767 700.641 452.767C701.47 452.767 702.214 452.597 702.874 452.256C703.544 451.915 704.095 451.42 704.527 450.773C704.97 450.114 705.26 449.324 705.396 448.403H712.249C712.135 450.403 711.589 452.165 710.612 453.688C709.646 455.199 708.311 456.381 706.607 457.233C704.902 458.085 702.885 458.511 700.555 458.511ZM730.824 431.818V437.273H715.057V431.818H730.824ZM718.636 425.545H725.898V449.955C725.898 450.625 726 451.148 726.205 451.523C726.409 451.886 726.693 452.142 727.057 452.29C727.432 452.437 727.864 452.511 728.352 452.511C728.693 452.511 729.034 452.483 729.375 452.426C729.716 452.358 729.977 452.307 730.159 452.273L731.301 457.676C730.938 457.79 730.426 457.92 729.767 458.068C729.108 458.227 728.307 458.324 727.364 458.358C725.614 458.426 724.08 458.193 722.761 457.659C721.455 457.125 720.438 456.295 719.71 455.17C718.983 454.045 718.625 452.625 718.636 450.909V425.545ZM754.18 423.091V458H746.8V423.091H754.18ZM767.378 442.864V458H760.116V431.818H767.037V436.438H767.344C767.923 434.915 768.895 433.71 770.259 432.824C771.622 431.926 773.276 431.477 775.219 431.477C777.037 431.477 778.622 431.875 779.974 432.67C781.327 433.466 782.378 434.602 783.128 436.08C783.878 437.545 784.253 439.295 784.253 441.33V458H776.991V442.625C777.003 441.023 776.594 439.773 775.764 438.875C774.935 437.966 773.793 437.511 772.338 437.511C771.361 437.511 770.497 437.722 769.747 438.142C769.009 438.562 768.429 439.176 768.009 439.983C767.599 440.778 767.389 441.739 767.378 442.864ZM799.624 458.426C797.635 458.426 795.834 457.915 794.22 456.892C792.618 455.858 791.345 454.341 790.402 452.341C789.47 450.33 789.004 447.864 789.004 444.943C789.004 441.943 789.487 439.449 790.453 437.46C791.419 435.46 792.703 433.966 794.305 432.977C795.919 431.977 797.686 431.477 799.607 431.477C801.072 431.477 802.294 431.727 803.271 432.227C804.26 432.716 805.055 433.33 805.658 434.068C806.271 434.795 806.737 435.511 807.055 436.216H807.277V423.091H814.521V458H807.362V453.807H807.055C806.714 454.534 806.232 455.256 805.607 455.972C804.993 456.676 804.192 457.261 803.203 457.727C802.226 458.193 801.033 458.426 799.624 458.426ZM801.925 452.648C803.095 452.648 804.084 452.33 804.891 451.693C805.709 451.045 806.334 450.142 806.766 448.983C807.209 447.824 807.43 446.466 807.43 444.909C807.43 443.352 807.214 442 806.783 440.852C806.351 439.705 805.726 438.818 804.908 438.193C804.089 437.568 803.095 437.256 801.925 437.256C800.732 437.256 799.726 437.58 798.908 438.227C798.089 438.875 797.47 439.773 797.05 440.92C796.629 442.068 796.419 443.398 796.419 444.909C796.419 446.432 796.629 447.778 797.05 448.949C797.482 450.108 798.101 451.017 798.908 451.676C799.726 452.324 800.732 452.648 801.925 452.648ZM832.423 458.511C829.73 458.511 827.412 457.966 825.469 456.875C823.537 455.773 822.048 454.216 821.003 452.205C819.957 450.182 819.435 447.79 819.435 445.028C819.435 442.335 819.957 439.972 821.003 437.938C822.048 435.903 823.52 434.318 825.418 433.182C827.327 432.045 829.565 431.477 832.134 431.477C833.861 431.477 835.469 431.756 836.957 432.312C838.457 432.858 839.764 433.682 840.878 434.784C842.003 435.886 842.878 437.273 843.503 438.943C844.128 440.602 844.44 442.545 844.44 444.773V446.767H822.332V442.267H837.605C837.605 441.222 837.378 440.295 836.923 439.489C836.469 438.682 835.838 438.051 835.031 437.597C834.236 437.131 833.31 436.898 832.253 436.898C831.151 436.898 830.173 437.153 829.321 437.665C828.48 438.165 827.821 438.841 827.344 439.693C826.866 440.534 826.622 441.472 826.611 442.506V446.784C826.611 448.08 826.849 449.199 827.327 450.142C827.815 451.085 828.503 451.812 829.389 452.324C830.276 452.835 831.327 453.091 832.543 453.091C833.349 453.091 834.088 452.977 834.759 452.75C835.429 452.523 836.003 452.182 836.48 451.727C836.957 451.273 837.321 450.716 837.571 450.057L844.287 450.5C843.946 452.114 843.247 453.523 842.19 454.727C841.145 455.92 839.793 456.852 838.134 457.523C836.486 458.182 834.582 458.511 832.423 458.511ZM854.778 431.818L859.585 440.972L864.511 431.818H871.96L864.375 444.909L872.165 458H864.75L859.585 448.949L854.506 458H847.006L854.778 444.909L847.278 431.818H854.778ZM887.267 458.511C884.574 458.511 882.256 457.966 880.312 456.875C878.381 455.773 876.892 454.216 875.847 452.205C874.801 450.182 874.278 447.79 874.278 445.028C874.278 442.335 874.801 439.972 875.847 437.938C876.892 435.903 878.364 434.318 880.261 433.182C882.17 432.045 884.409 431.477 886.977 431.477C888.705 431.477 890.313 431.756 891.801 432.312C893.301 432.858 894.608 433.682 895.722 434.784C896.847 435.886 897.722 437.273 898.347 438.943C898.972 440.602 899.284 442.545 899.284 444.773V446.767H877.176V442.267H892.449C892.449 441.222 892.222 440.295 891.767 439.489C891.313 438.682 890.682 438.051 889.875 437.597C889.08 437.131 888.153 436.898 887.097 436.898C885.994 436.898 885.017 437.153 884.165 437.665C883.324 438.165 882.665 438.841 882.188 439.693C881.71 440.534 881.466 441.472 881.455 442.506V446.784C881.455 448.08 881.693 449.199 882.17 450.142C882.659 451.085 883.347 451.812 884.233 452.324C885.119 452.835 886.17 453.091 887.386 453.091C888.193 453.091 888.932 452.977 889.602 452.75C890.273 452.523 890.847 452.182 891.324 451.727C891.801 451.273 892.165 450.716 892.415 450.057L899.131 450.5C898.79 452.114 898.091 453.523 897.034 454.727C895.989 455.92 894.636 456.852 892.977 457.523C891.33 458.182 889.426 458.511 887.267 458.511ZM904.023 458V431.818H911.062V436.386H911.335C911.813 434.761 912.614 433.534 913.739 432.705C914.864 431.864 916.159 431.443 917.625 431.443C917.989 431.443 918.381 431.466 918.801 431.511C919.222 431.557 919.591 431.619 919.909 431.699V438.142C919.568 438.04 919.097 437.949 918.494 437.869C917.892 437.79 917.341 437.75 916.841 437.75C915.773 437.75 914.818 437.983 913.977 438.449C913.148 438.903 912.489 439.54 912 440.358C911.523 441.176 911.284 442.119 911.284 443.188V458H904.023ZM940.926 458H933.017L945.068 423.091H954.58L966.614 458H958.705L949.96 431.068H949.688L940.926 458ZM940.432 444.278H959.114V450.04H940.432V444.278ZM970.679 467.818V431.818H977.838V436.216H978.162C978.48 435.511 978.94 434.795 979.543 434.068C980.156 433.33 980.952 432.716 981.929 432.227C982.918 431.727 984.145 431.477 985.611 431.477C987.52 431.477 989.281 431.977 990.895 432.977C992.509 433.966 993.798 435.46 994.764 437.46C995.73 439.449 996.213 441.943 996.213 444.943C996.213 447.864 995.741 450.33 994.798 452.341C993.866 454.341 992.594 455.858 990.98 456.892C989.378 457.915 987.582 458.426 985.594 458.426C984.185 458.426 982.986 458.193 981.997 457.727C981.02 457.261 980.219 456.676 979.594 455.972C978.969 455.256 978.491 454.534 978.162 453.807H977.94V467.818H970.679ZM977.787 444.909C977.787 446.466 978.003 447.824 978.435 448.983C978.866 450.142 979.491 451.045 980.31 451.693C981.128 452.33 982.122 452.648 983.293 452.648C984.474 452.648 985.474 452.324 986.293 451.676C987.111 451.017 987.73 450.108 988.151 448.949C988.582 447.778 988.798 446.432 988.798 444.909C988.798 443.398 988.588 442.068 988.168 440.92C987.747 439.773 987.128 438.875 986.31 438.227C985.491 437.58 984.486 437.256 983.293 437.256C982.111 437.256 981.111 437.568 980.293 438.193C979.486 438.818 978.866 439.705 978.435 440.852C978.003 442 977.787 443.352 977.787 444.909ZM1001.05 467.818V431.818H1008.21V436.216H1008.54C1008.86 435.511 1009.32 434.795 1009.92 434.068C1010.53 433.33 1011.33 432.716 1012.3 432.227C1013.29 431.727 1014.52 431.477 1015.99 431.477C1017.89 431.477 1019.66 431.977 1021.27 432.977C1022.88 433.966 1024.17 435.46 1025.14 437.46C1026.11 439.449 1026.59 441.943 1026.59 444.943C1026.59 447.864 1026.12 450.33 1025.17 452.341C1024.24 454.341 1022.97 455.858 1021.36 456.892C1019.75 457.915 1017.96 458.426 1015.97 458.426C1014.56 458.426 1013.36 458.193 1012.37 457.727C1011.39 457.261 1010.59 456.676 1009.97 455.972C1009.34 455.256 1008.87 454.534 1008.54 453.807H1008.32V467.818H1001.05ZM1008.16 444.909C1008.16 446.466 1008.38 447.824 1008.81 448.983C1009.24 450.142 1009.87 451.045 1010.68 451.693C1011.5 452.33 1012.5 452.648 1013.67 452.648C1014.85 452.648 1015.85 452.324 1016.67 451.676C1017.49 451.017 1018.11 450.108 1018.53 448.949C1018.96 447.778 1019.17 446.432 1019.17 444.909C1019.17 443.398 1018.96 442.068 1018.54 440.92C1018.12 439.773 1017.5 438.875 1016.68 438.227C1015.87 437.58 1014.86 437.256 1013.67 437.256C1012.49 437.256 1011.49 437.568 1010.67 438.193C1009.86 438.818 1009.24 439.705 1008.81 440.852C1008.38 442 1008.16 443.352 1008.16 444.909Z" fill="#1A1A1A"/>
</svg>
