<?xml version="1.0" encoding="UTF-8"?>
<svg width="1463px" height="564px" viewBox="0 0 1463 564" version="1.1" xmlns="http://www.w3.org/2000/svg" xmlns:xlink="http://www.w3.org/1999/xlink">
    <!-- Generator: Sketch 53.2 (72643) - https://sketchapp.com -->
    <title>nibbles2</title>
    <desc>Created with Sketch.</desc>
    <g id="Page-1" stroke="none" stroke-width="1" fill="none" fill-rule="evenodd">
        <circle id="Oval" fill="#DEFFFA" fill-rule="nonzero" cx="244" cy="361.812067" r="73"></circle>
        <polygon id="Path" fill="#9EFF8D" fill-rule="nonzero" transform="translate(1191.400448, 396.505937) rotate(-20.000000) translate(-1191.400448, -396.505937) " points="1191.40045 277.505937 1353.90045 515.505937 1028.90045 515.505937"></polygon>
        <polygon id="Path" fill="#3365FF" fill-rule="nonzero" transform="translate(212.412755, 108.384856) rotate(10.000000) translate(-212.412755, -108.384856) " points="212.412755 102.384856 220.912755 114.384856 203.912755 114.384856"></polygon>
        <polygon id="Path" fill="#9EFF8D" fill-rule="nonzero" transform="translate(26.008177, 258.022431) rotate(-170.000000) translate(-26.008177, -258.022431) " points="26.0081771 241.522431 49.5081771 274.522431 2.50817713 274.522431"></polygon>
        <polygon id="Path" fill="#FFFB8D" fill-rule="nonzero" transform="translate(1217.008177, 89.330060) rotate(-170.000000) translate(-1217.008177, -89.330060) " points="1217.00818 72.8300601 1240.50818 105.83006 1193.50818 105.83006"></polygon>
        <polygon id="Path" fill="#FFFB8D" fill-rule="nonzero" transform="translate(57.181814, 98.636468) rotate(-170.000000) translate(-57.181814, -98.636468) " points="63.8928935 90.403098 63.8870288 106.869838 50.4707355 97.419819"></polygon>
        <polygon id="Path" fill="#3365FF" fill-rule="nonzero" transform="translate(163.545056, 182.824446) rotate(-170.000000) translate(-163.545056, -182.824446) " points="139.118046 181.42732 187.972066 157.717363 179.971088 207.93153"></polygon>
        <polygon id="Path" fill="#3365FF" fill-rule="nonzero" transform="translate(1433.666924, 336.125792) rotate(-300.000000) translate(-1433.666924, -336.125792) " points="1417.16692 312.625792 1450.16692 329.150129 1424.33735 359.625792"></polygon>
        <polygon id="Path" fill="#3365FF" fill-rule="nonzero" transform="translate(1320.723831, 17.695202) rotate(-383.000000) translate(-1320.723831, -17.695202) " points="1320.17765 4.35295665 1332.5969 16.4712485 1308.85076 31.0374467"></polygon>
        <polygon id="Path" fill="#9EFF8D" fill-rule="nonzero" transform="translate(192.687922, 396.088674) rotate(-300.000000) translate(-192.687922, -396.088674) " points="160.32935 429.109239 156.118783 363.06811 229.257061 375.324859"></polygon>
        <polygon id="Rectangle" fill="#DEFFFA" fill-rule="nonzero" transform="translate(1299.825496, 239.493307) rotate(30.000000) translate(-1299.825496, -239.493307) " points="1258.47737 37.6757327 1255.95732 33.3108807 1350.3255 302.142441 1249.3255 445.675733"></polygon>
        <polygon id="Path" fill="#DEFFFA" fill-rule="nonzero" transform="translate(1138.617031, 89.363833) rotate(105.000000) translate(-1138.617031, -89.363833) " points="1140.07266 65.8638331 1173.07266 112.863833 1104.1614 83.0086331"></polygon>
    </g>
</svg>