<?xml version="1.0" encoding="UTF-8"?>
<svg width="1502px" height="592px" viewBox="0 0 1502 592" version="1.1" xmlns="http://www.w3.org/2000/svg" xmlns:xlink="http://www.w3.org/1999/xlink">
    <!-- Generator: Sketch 53.2 (72643) - https://sketchapp.com -->
    <title>nibbles</title>
    <desc>Created with Sketch.</desc>
    <g id="Page-1" stroke="none" stroke-width="1" fill="none" fill-rule="evenodd">
        <circle id="Oval" fill="#DEFFFA" fill-rule="nonzero" cx="299" cy="389.812067" r="73"></circle>
        <polygon id="Path" fill="#9EFF8D" fill-rule="nonzero" transform="translate(1246.400448, 424.505937) rotate(-20.000000) translate(-1246.400448, -424.505937) " points="1246.40045 305.505937 1408.90045 543.505937 1083.90045 543.505937"></polygon>
        <polygon id="Path" fill="#FF5967" fill-rule="nonzero" transform="translate(267.412755, 136.384856) rotate(10.000000) translate(-267.412755, -136.384856) " points="267.412755 130.384856 275.912755 142.384856 258.912755 142.384856"></polygon>
        <polygon id="Path" fill="#9EFF8D" fill-rule="nonzero" transform="translate(81.008177, 286.022431) rotate(-170.000000) translate(-81.008177, -286.022431) " points="81.0081771 269.522431 104.508177 302.522431 57.5081771 302.522431"></polygon>
        <polygon id="Path" fill="#3365FF" fill-rule="nonzero" transform="translate(1108.000000, 323.500000) rotate(-300.000000) translate(-1108.000000, -323.500000) " points="1108 308 1130 339 1086 339"></polygon>
        <circle id="Oval" fill="#3365FF" fill-rule="nonzero" cx="91.5000002" cy="9.31206654" r="8.5"></circle>
        <polygon id="Path" fill="#9EFF8D" fill-rule="nonzero" transform="translate(247.687922, 424.088674) rotate(-300.000000) translate(-247.687922, -424.088674) " points="215.32935 457.109239 211.118783 391.06811 284.257061 403.324859"></polygon>
        <circle id="Oval" fill="#FF5967" fill-rule="nonzero" cx="1462" cy="437" r="22"></circle>
        <circle id="Oval" fill="#FF5967" fill-rule="nonzero" cx="1281" cy="92" r="12"></circle>
        <rect id="Rectangle" fill="#3365FF" fill-rule="nonzero" transform="translate(270.977241, 79.977241) rotate(30.000000) translate(-270.977241, -79.977241) " x="261.477241" y="70.4772413" width="19" height="19"></rect>
        <polygon id="Rectangle" fill="#DEFFFA" fill-rule="nonzero" transform="translate(1354.825496, 267.493307) rotate(30.000000) translate(-1354.825496, -267.493307) " points="1313.47737 65.6757327 1310.95732 61.3108807 1405.3255 330.142441 1304.3255 473.675733"></polygon>
        <polygon id="Path" fill="#DEFFFA" fill-rule="nonzero" transform="translate(1176.617031, 119.363833) rotate(105.000000) translate(-1176.617031, -119.363833) " points="1178.07266 95.8638331 1211.07266 142.863833 1142.1614 113.008633"></polygon>
    </g>
</svg>