<?xml version="1.0" encoding="UTF-8"?>
<svg width="1155px" height="1095px" viewBox="0 0 1155 1095" version="1.1" xmlns="http://www.w3.org/2000/svg" xmlns:xlink="http://www.w3.org/1999/xlink">
    <!-- Generator: Sketch 53.2 (72643) - https://sketchapp.com -->
    <title>AugmentedReality_6</title>
    <desc>Created with Sketch.</desc>
    <g id="Page-1" stroke="none" stroke-width="1" fill="none" fill-rule="evenodd">
        <g id="AugmentedReality_6" fill-rule="nonzero">
            <circle id="Oval" fill="#DEFFFA" cx="584.5" cy="547.5" r="547.5"></circle>
            <polygon id="Path" fill="#63EFFF" points="903.102271 245.360546 909 603.056201 577.288746 424.943799 255.897729 606 250 238 578.762915 413.167555"></polygon>
            <polygon id="Path" fill="#FFFFFF" points="319.675129 736.832088 194 950 1028 950 885.585748 736"></polygon>
            <path d="M255.037702,615.674448 C250.981235,621.747397 575.608877,795 575.608877,795 L903,602.055144 L571.060844,425 L255.037702,615.674448 Z" id="Path" fill="#FFFFFF"></path>
            <path d="M255.037702,223.325044 C250.981235,217.253161 575.608877,44 575.608877,44 L903,236.944309 L571.060844,414 L255.037702,223.325044 Z" id="Path" fill="#FFFFFF"></path>
            <path d="M319,737.133215 L211.962652,732 C211.962652,732 175.655227,743.340433 159.771711,766.020251 C143.886098,788.701117 12.2723356,927.051676 12.2723356,927.051676 C12.2723356,927.051676 5.46436566,952 59.9260283,952 C114.387691,952 193.451977,949.732542 193.451977,949.732542 L319,737.133215 Z" id="Path" fill="#63EFFF"></path>
            <path d="M905,739 L959.587803,739 L1137,937.698643 C1137,937.698643 1130.17613,957 1091.50894,957 C1052.8428,957 1014.17561,957 1014.17561,957 L905,739 Z" id="Path" fill="#63EFFF"></path>
            <path d="M941.929079,757.572341 C1003.53762,812.50064 1050.87401,880.721093 1091.85802,952 L1129,952 C1083.48981,866.182669 1023.87194,789.852534 951.324062,725.166156 C941.295203,716.220726 925.901972,717.10897 916.965893,727.175728 C908.029815,737.241437 931.882408,748.618512 941.929079,757.572341 Z" id="Path" fill="#9EFF8D"></path>
            <path d="M1126.73857,948 L1089.27136,948 C1090.16213,949.521995 1091.09493,951.023112 1091.97835,952.548239 C751.609468,965.71381 388.351425,967.056256 48.1085973,957.269765 C34.6061975,956.590191 23.3990166,967.419531 23.0103525,980.806407 C22.6216885,994.192239 33.2248644,1005.36189 46.6947005,1005.74813 C191.892243,1009.91535 337.876568,1012 484.01951,1012 C694.615559,1012 905.513086,1007.67411 1114.61646,999.030681 C1122.92336,998.69246 1130.48445,994.169274 1134.67152,987.025918 C1138.86489,979.890913 1139.11175,971.121173 1135.3228,963.765907 C1132.57694,958.433705 1129.59368,953.260174 1126.73857,948 Z" id="Path" fill="#9EFF8D"></path>
            <path d="M854.710059,582.998376 C849.140441,581.515178 844.507503,578.636768 840.700861,575 C839.745258,576.779628 838.842219,578.59487 837.695286,580.251946 C827.719804,594.665992 810.06586,604.938396 792.991165,614.869329 L580.115699,738.657712 C568.464495,745.430565 564.535907,760.327488 571.333406,771.930161 C575.870678,779.683433 584.042185,784 592.44497,784 C596.625863,784 600.862473,782.930547 604.724832,780.681658 L817.608708,656.892227 C837.274779,645.455052 861.748298,631.223264 877.901031,607.875463 C881.05063,603.32217 883.663031,598.623282 886,593.846881 C875.662882,589.96815 865.409865,585.848505 854.710059,582.998376 Z" id="Path" fill="#9EFF8D"></path>
            <path d="M839,576.956829 C852.752268,577.380453 865.29565,582.546985 877.0047,592.327132 C879.39091,594.320162 881.298404,596.578089 882.81451,599 C898.368009,570.960918 899.897792,539.068223 899.984066,506.144324 C900.201855,422.237314 898.18494,337.107785 894.063783,253 C878.143095,259.026395 862.058275,264.518792 845.879817,269.864025 C849.494903,348.427905 851.312967,427.743376 851.107804,506.017132 C851.032051,533.95425 849.913647,558.613799 839,576.956829 Z" id="Path" fill="#9EFF8D"></path>
            <path d="M1000.55464,916 L230.445361,916 C219.151663,916 210,925.17612 210,936.5 C210,947.82388 219.151663,957 230.445361,957 L1000.55464,957 C1011.84834,957 1021,947.82388 1021,936.5 C1021,925.17612 1011.84834,916 1000.55464,916 Z" id="Path" fill="#63EFFF"></path>
            <g id="Group" transform="translate(0.000000, 32.000000)" fill="#2A1540">
                <g transform="translate(0.000000, 688.523207)" id="Path">
                    <g>
                        <path d="M1109.59695,247.399193 L45.4125,247.399193 C23.0244,247.399193 7.6209,240.559093 2.0412,228.131039 C0.0252,223.631498 -3.3411,211.671556 9.0111,197.799283 L168.85155,18.2878481 C179.34,6.5105327 205.3317,0.35160865 225.5925,0.35160865 L370.85475,0.35160865 C377.5884,0.35160865 383.0505,5.81151371 383.0505,12.5414082 C383.0505,19.2723523 377.58945,24.7301582 370.85475,24.7301582 L225.5925,24.7301582 C207.6585,24.7301582 190.52565,30.6119937 187.0638,34.4922838 L27.2244,214.003718 C24.549,217.011809 24.39045,218.584077 24.39045,218.584077 C24.906,219.139304 30.35235,223.020643 45.41355,223.020643 L1109.59695,223.020643 C1124.2602,223.020643 1129.8105,219.337674 1130.67465,218.187336 C1130.5245,218.140105 1130.08665,216.608771 1127.77665,214.004768 L967.93725,34.4922838 C964.4754,30.6119937 947.3436,24.7301582 929.40855,24.7301582 L777.34125,24.7301582 C770.6097,24.7301582 765.1476,19.2713027 765.1476,12.5414082 C765.1476,5.81151371 770.6097,0.35160865 777.34125,0.35160865 L929.4096,0.35160865 C949.66935,0.35160865 975.6621,6.5105327 986.15055,18.2878481 L1145.9889,197.799283 C1158.3432,211.671556 1154.9769,223.631498 1152.9609,228.131039 C1147.38645,240.559093 1131.98505,247.399193 1109.59695,247.399193 Z"></path>
                        <path d="M192.6372,243.399251 C190.53405,243.399251 188.40675,242.859768 186.4611,241.716777 C180.65775,238.296203 178.7205,230.829504 182.13405,225.028486 L309.8592,8.13003165 C313.28955,2.31956751 320.7519,0.399889241 326.5563,3.80367089 C332.35965,7.22529536 334.2969,14.6919937 330.8823,20.4940612 L203.15715,237.392516 C200.8776,241.257062 196.81305,243.399251 192.6372,243.399251 Z"></path>
                        <path d="M1032.3075,243.399251 C1028.4498,243.399251 1024.66245,241.575084 1022.2884,238.169204 L871.34985,21.2707489 C867.5079,15.7478692 868.8645,8.14472574 874.398,4.30431962 C879.9168,0.4544673 887.523,1.8273154 891.37335,7.35124473 L1042.31295,224.249699 C1046.157,229.773629 1044.7983,237.375723 1039.26375,241.216129 C1037.1438,242.693935 1034.71305,243.399251 1032.3075,243.399251 Z"></path>
                        <path d="M155.9187,158.0801 C153.39345,158.0801 150.8451,157.303412 148.66215,155.683914 C143.2557,151.668228 142.1196,144.033597 146.1306,138.630369 L207.6354,55.7378428 C211.6527,50.3335654 219.282,49.1989715 224.6958,53.2062605 C230.10435,57.2219462 231.23835,64.856577 227.2284,70.2608544 L165.7236,153.152331 C163.32645,156.373486 159.64935,158.0801 155.9187,158.0801 Z"></path>
                    </g>
                    <path d="M1109.12025,306.307811 L45.88185,306.307811 C20.58,306.307811 0,285.737131 0,260.446498 L0,222.328972 C0,215.599077 5.46315,210.140222 12.19575,210.140222 C18.92835,210.140222 24.39045,215.599077 24.39045,222.328972 L24.39045,260.446498 C24.39045,272.294135 34.0284,281.928212 45.88185,281.928212 L1109.12025,281.928212 C1120.9737,281.928212 1130.6106,272.294135 1130.6106,260.446498 L1130.6106,222.328972 C1130.6106,215.599077 1136.0727,210.140222 1142.80635,210.140222 C1149.53895,210.140222 1155,215.599077 1155,222.328972 L1155,260.446498 C1155,285.73818 1134.42315,306.307811 1109.12025,306.307811 Z"></path>
                </g>
                <path d="M577.5042,778.829953 C575.4,778.829953 573.29685,778.283122 571.40685,777.19471 L244.89255,588.755564 C241.122,586.579789 238.79625,582.557806 238.79625,578.199958 L238.79625,201.319568 C238.79625,196.962769 241.122,192.939736 244.89255,190.76606 L571.4079,2.3248154 C575.18685,0.151139241 579.82365,0.151139241 583.6026,2.3248154 L910.1169,190.76606 C913.88745,192.939736 916.21425,196.963819 916.21425,201.319568 L916.21425,578.199958 C916.21425,582.556756 913.88745,586.579789 910.1169,588.755564 L583.6026,777.19471 C581.7126,778.282073 579.6084,778.829953 577.5042,778.829953 Z M263.1846,571.161487 L577.5042,752.561113 L891.82485,571.161487 L891.82485,208.359088 L577.5042,26.9584124 L263.1846,208.359088 L263.1846,571.161487 Z" id="Shape"></path>
                <path d="M250.9983,590.389757 C246.79095,590.389757 242.6865,588.205585 240.43215,584.294858 C237.06585,578.461303 239.05875,571.010348 244.89255,567.645401 L897.9222,190.765011 C903.74235,187.399014 911.22045,189.383766 914.57835,195.223618 C917.94465,201.057173 915.95175,208.508128 910.1169,211.875174 L257.08725,588.755564 C255.1668,589.864968 253.071,590.389757 250.9983,590.389757 Z" id="Path"></path>
                <path d="M904.01115,590.389757 C901.9395,590.389757 899.8437,589.864968 897.9222,588.754515 L244.89255,211.875174 C239.0577,208.509177 237.06585,201.057173 240.43215,195.223618 C243.7974,189.383766 251.2608,187.399014 257.0883,190.765011 L910.11795,567.645401 C915.9528,571.009299 917.9457,578.461303 914.5794,584.294858 C912.32295,588.206635 908.21955,590.389757 904.01115,590.389757 Z" id="Path"></path>
            </g>
        </g>
    </g>
</svg>