<?xml version="1.0" encoding="UTF-8"?>
<svg width="88px" height="84px" viewBox="0 0 88 84" version="1.1" xmlns="http://www.w3.org/2000/svg" xmlns:xlink="http://www.w3.org/1999/xlink">
    <!-- Generator: Sketch 53.2 (72643) - https://sketchapp.com -->
    <title>logo</title>
    <desc>Created with Sketch.</desc>
    <g id="Page-1" stroke="none" stroke-width="1" fill="none" fill-rule="evenodd">
        <g id="logo" transform="translate(0.000000, -1.000000)" fill="#2B3AF7" fill-rule="nonzero">
            <path d="M43.751473,1.0138 C43.5109339,1.04443635 43.2779707,1.11854496 43.06395,1.23251 L1.0625357,23.2289 C0.409946855,23.576217 0.00217665207,24.2550918 0.00217665207,24.994235 C0.00217665207,25.7333782 0.409946855,26.412253 1.0625357,26.75957 L10.312847,31.60252 L1.0937868,36.22676 C0.424584205,36.5685204 0.00342249243,37.2564378 0.00342249243,38.00774 C0.00342249243,38.7590422 0.424584205,39.4469596 1.0937868,39.78872 L9.125307,43.81922 L1.0312847,48.25602 C0.384639325,48.6147362 -0.0112916279,49.3008901 0.00179490281,50.0401403 C0.0148814335,50.7793904 0.434849999,51.4511066 1.0937867,51.78672 L9.1253069,55.81732 L1.0312846,60.25402 C0.384639225,60.6127362 -0.0112917279,61.2988901 0.00179480281,62.0381403 C0.0148813335,62.7773904 0.434849899,63.4491066 1.0937866,63.78472 L43.0952008,84.78132 C43.6647204,85.0707147 44.3382422,85.0707147 44.9077618,84.78132 L86.9091768,63.78472 C87.5681133,63.4491063 87.9880815,62.7773898 88.0011676,62.0381397 C88.0142537,61.2988895 87.6183224,60.6127358 86.9716768,60.25402 L78.8776538,55.81732 L86.9091748,51.78672 C87.5681113,51.4511063 87.9880795,50.7793898 88.0011656,50.0401397 C88.0142517,49.3008895 87.6183204,48.6147358 86.9716748,48.25602 L78.8776518,43.81922 L86.9091728,39.78872 C87.5783754,39.4469596 87.9995371,38.7590422 87.9995371,38.00774 C87.9995371,37.2564378 87.5783754,36.5685204 86.9091728,36.22676 L77.6901118,31.60252 L86.9404238,26.75957 C87.5930126,26.412253 88.0007828,25.7333782 88.0007828,24.994235 C88.0007828,24.2550918 87.5930126,23.576217 86.9404238,23.2289 L44.939013,1.23251 C44.5751532,1.03903649 44.1604028,0.962651666 43.751473,1.0138 L43.751473,1.0138 Z M44.001482,5.2631 L81.690251,25.00986 L44.001482,44.72532 L6.312713,25.00986 L44.001482,5.2631 Z M14.687995,33.8834 L43.06395,48.75592 C43.6502608,49.0669513 44.3527022,49.0669513 44.939013,48.75592 L73.314969,33.8834 L81.533996,38.00772 L44.001482,56.75462 L6.468968,38.00772 L14.687995,33.8834 Z M13.531706,46.00642 L43.095201,60.78522 C43.6647206,61.0746147 44.3382424,61.0746147 44.907762,60.78522 L74.471258,46.00642 L81.690251,49.94322 L44.001482,68.75262 L6.312713,49.94322 L13.531706,46.00642 L13.531706,46.00642 Z M13.531706,58.00442 L43.095201,72.78322 C43.6647206,73.0726147 44.3382424,73.0726147 44.907762,72.78322 L74.471258,58.00442 L81.690251,61.94132 L44.001482,80.75072 L6.312713,61.94132 L13.531706,58.00442 Z" id="Shape"></path>
        </g>
    </g>
</svg>