
        <svg xmlns="http://www.w3.org/2000/svg" xmlns:xlink="http://www.w3.org/1999/xlink" version="1.1" width="3210.5263157894738" height="884.1201865023252" viewBox="0 0 3210.5263157894738 884.1201865023252">
			
			<g transform="scale(10.526315789473685) translate(10, 10)">
				<defs id="SvgjsDefs1021"/><g id="SvgjsG1022" featureKey="symbolFeature-0" transform="matrix(21.459228846115398,0,0,21.459228846115398,-21.1373407204004,-21.65236069828863)" fill="#000"><g xmlns="http://www.w3.org/2000/svg"><g><polygon points="2.179,1.009 0.989,2.171 1.872,3.302 2.465,3.292 3.062,2.759 2.767,2.428 2.292,2.852     2.085,2.856 1.583,2.211 2.358,1.453 3.225,1.453 4.014,2.49 4.014,1.759 3.443,1.009   "/></g><g><polygon points="2.544,1.708 1.947,2.242 2.242,2.571 2.717,2.148 2.923,2.145 3.426,2.79 2.649,3.547     1.784,3.547 0.985,2.499 0.985,3.23 1.565,3.991 2.83,3.991 4.014,2.833 4.014,2.824 3.137,1.697   "/></g></g></g><g id="SvgjsG1023" featureKey="nameFeature-0" transform="matrix(1.4302058310523533,0,0,1.4302058310523533,81.85354812645022,-10.789472320259957)" fill="#000"><path d="M15.36 44.08 l0 -5.68 c-0.4 0.72 -1.48 1.6 -2.76 1.6 l-4.8 0 c-3.72 0 -5.6 -2.64 -5.6 -5.84 l0 -8.52 c0 -3.2 2.04 -5.68 5.84 -5.68 l9.52 0 c0.72 0 1.28 0.6 1.28 1.28 l0 22.68 c0 3.24 -2.64 5.84 -5.84 5.84 l-9.52 0 l0 -2.88 c0 -0.24 0.2 -0.44 0.44 -0.44 l9.08 0 c1.28 0 2.36 -1.04 2.36 -2.36 z M5.68 25.64 l0 8.68 c0 1.28 0.52 2.36 2.2 2.36 l5.52 0 c1.04 -0.16 1.88 -1 1.96 -2.04 l0 -10.92 c0 -0.24 -0.2 -0.44 -0.44 -0.44 l-6.88 0 c-1.84 0 -2.36 1.08 -2.36 2.36 z M29.439999999999998 40 c-3.24 0 -5.84 -2.6 -5.84 -5.84 l0 -8.48 c0 -3.72 2.6 -5.68 5.84 -5.68 l5.36 0 c3.24 0 5.84 1.96 5.84 5.68 l0 4.6 c0 0.68 -0.08 1.24 -1.04 1.24 l-10.96 0 c-0.64 0 -1.2 -0.28 -1.56 -0.76 l0 3.56 c0 1.32 1.04 2.36 2.36 2.36 l9.92 0 c0.24 0 0.44 0.2 0.44 0.44 l0 2.88 l-10.36 0 z M34.92 23.28 l-5.48 0 c-1.32 0 -2.36 0.76 -2.36 2.36 l0 2.16 c0 0.24 0.16 0.4 0.4 0.44 l9.32 0 c0.24 0 0.44 -0.2 0.44 -0.44 l0 -2.16 c0 -1.6 -0.76 -2.36 -2.32 -2.36 z M56.68000000000001 20 c3.24 0 5.84 2.6 5.84 5.84 l0 14.16 l-3.04 0 c-0.24 0 -0.44 -0.2 -0.44 -0.44 l0 -13.92 c0 -1.28 -1.04 -2.36 -2.36 -2.36 l-7.24 0 c-0.24 0 -0.44 0.2 -0.44 0.44 l0 15.84 c0 0.24 -0.2 0.44 -0.44 0.44 l-3.04 0 l0 -17.4 c0 -1.44 1.16 -2.6 2.6 -2.6 l8.56 0 z M73.28 40 c-3.24 0 -5.84 -2.6 -5.84 -5.84 l0 -8.48 c0 -3.72 2.6 -5.68 5.84 -5.68 l5.36 0 c3.24 0 5.84 1.96 5.84 5.68 l0 4.6 c0 0.68 -0.08 1.24 -1.04 1.24 l-10.96 0 c-0.64 0 -1.2 -0.28 -1.56 -0.76 l0 3.56 c0 1.32 1.04 2.36 2.36 2.36 l9.92 0 c0.24 0 0.44 0.2 0.44 0.44 l0 2.88 l-10.36 0 z M78.76 23.28 l-5.48 0 c-1.32 0 -2.36 0.76 -2.36 2.36 l0 2.16 c0 0.24 0.16 0.4 0.4 0.44 l9.32 0 c0.24 0 0.44 -0.2 0.44 -0.44 l0 -2.16 c0 -1.6 -0.76 -2.36 -2.32 -2.36 z M104.16000000000001 36.76 l0 2.8 c0 0.24 -0.2 0.44 -0.44 0.44 l-15.12 0 c-0.24 0 -0.44 -0.2 -0.44 -0.44 l0 -1.56 c0 -0.76 0.28 -1.44 0.72 -1.96 l10.84 -12.36 c0.04 -0.04 0.08 -0.12 0.08 -0.2 c0 -0.16 -0.12 -0.28 -0.28 -0.28 l-10.32 0 l0 -2.8 c0 -0.24 0.2 -0.4 0.44 -0.4 l13.8 0 c0.24 0 0.44 0.16 0.44 0.4 l0 2.24 c0 0.76 -0.28 1.44 -0.72 1.96 l-10.28 11.68 c-0.12 0.12 -0.12 0.28 0 0.4 c0.04 0.08 0.12 0.08 0.16 0.08 l11.12 0 z M108.36 40 c-0.32 0 -0.56 -0.28 -0.56 -0.56 l0 -3.2 l3.16 0 c0.32 0 0.56 0.28 0.56 0.6 l0 3.16 l-3.16 0 z M119.64000000000001 20 c0.24 0 0.44 0.16 0.44 0.4 l0 19.6 l-3.04 0 c-0.24 0 -0.44 -0.2 -0.44 -0.44 l0 -19.56 l3.04 0 z M119.64000000000001 11.04 c0.24 0 0.44 0.2 0.44 0.44 l0 3.28 l-3.04 0 c-0.24 0 -0.44 -0.2 -0.44 -0.44 l0 -3.28 l3.04 0 z M136.16000000000003 40.28 l-5.28 0 c-3.24 0 -5.84 -2.6 -5.84 -5.84 l0 -8.88 c0 -3.2 2.6 -5.84 5.84 -5.84 l5.28 0 c3.24 0 5.88 2.64 5.88 5.84 l0 8.88 c0 3.24 -2.64 5.84 -5.88 5.84 z M130.88000000000002 23.04 c-1.32 0 -2.36 1.08 -2.36 2.36 l0 9.2 c0 1.32 1.04 2.4 2.36 2.4 l5.28 0 c1.32 0 2.4 -1.08 2.4 -2.4 l0 -9.2 c0 -1.28 -1.08 -2.36 -2.4 -2.36 l-5.28 0 z"/></g>
			</g>
		</svg>
	