<svg width="3211" height="885" viewBox="0 0 3211 885" fill="none" xmlns="http://www.w3.org/2000/svg">
<path d="M374.971 105.264L106.166 367.744L305.624 623.222L439.575 620.963L574.429 500.565L507.792 425.797L400.496 521.573L353.738 522.476L240.343 376.779L415.405 205.557H611.248L789.473 439.802V274.679L660.492 105.264H374.971Z" fill="#2A478B"/>
<path d="M457.42 263.159L322.566 383.782L389.202 458.099L496.498 362.549L543.031 361.871L656.652 507.568L481.138 678.564H285.746L105.263 441.835V606.958L236.277 778.858H522.023L789.473 517.281V515.248L591.371 260.674L457.42 263.159Z" fill="#2A478B"/>
<path d="M1198.12 655.305V569.794C1192.1 580.633 1175.84 593.881 1156.57 593.881H1084.31C1028.3 593.881 1000 554.137 1000 505.961V377.695C1000 329.519 1030.71 292.183 1087.92 292.183H1231.24C1242.08 292.183 1250.51 301.216 1250.51 311.453V652.896C1250.51 701.674 1210.77 740.816 1162.59 740.816H1019.27V697.458C1019.27 693.845 1022.28 690.834 1025.89 690.834H1162.59C1181.86 690.834 1198.12 675.177 1198.12 655.305ZM1052.39 377.695V508.37C1052.39 527.64 1060.22 543.9 1085.51 543.9H1168.61C1184.27 541.491 1196.92 528.845 1198.12 513.188V348.789C1198.12 345.176 1195.11 342.165 1191.5 342.165H1087.92C1060.22 342.165 1052.39 358.424 1052.39 377.695ZM1410.09 593.881C1361.32 593.881 1322.17 554.739 1322.17 505.961V378.297C1322.17 322.293 1361.32 292.786 1410.09 292.786H1490.79C1539.56 292.786 1578.71 322.293 1578.71 378.297V447.549C1578.71 457.786 1577.5 466.217 1563.05 466.217H1398.05C1388.41 466.217 1379.98 462.001 1374.56 454.775V508.37C1374.56 528.243 1390.22 543.9 1410.09 543.9H1559.44C1563.05 543.9 1566.06 546.91 1566.06 550.524V593.881H1410.09ZM1492.59 342.165H1410.09C1390.22 342.165 1374.56 353.607 1374.56 377.695V410.213C1374.56 413.826 1376.97 416.235 1380.59 416.837H1520.9C1524.51 416.837 1527.52 413.826 1527.52 410.213V377.695C1527.52 353.607 1516.08 342.165 1492.59 342.165ZM1820.19 292.786C1868.96 292.786 1908.11 331.928 1908.11 380.706V593.881H1862.34C1858.73 593.881 1855.71 590.871 1855.71 587.257V377.695C1855.71 358.424 1840.06 342.165 1820.19 342.165H1711.19C1707.58 342.165 1704.56 345.176 1704.56 348.789V587.257C1704.56 590.871 1701.55 593.881 1697.94 593.881H1652.17V331.928C1652.17 310.249 1669.64 292.786 1691.32 292.786H1820.19ZM2070.1 593.881C2021.32 593.881 1982.18 554.739 1982.18 505.961V378.297C1982.18 322.293 2021.32 292.786 2070.1 292.786H2150.79C2199.57 292.786 2238.71 322.293 2238.71 378.297V447.549C2238.71 457.786 2237.5 466.217 2223.05 466.217H2058.05C2048.42 466.217 2039.99 462.001 2034.57 454.775V508.37C2034.57 528.243 2050.22 543.9 2070.1 543.9H2219.44C2223.05 543.9 2226.06 546.91 2226.06 550.524V593.881H2070.1ZM2152.6 342.165H2070.1C2050.22 342.165 2034.57 353.607 2034.57 377.695V410.213C2034.57 413.826 2036.97 416.235 2040.59 416.837H2180.9C2184.51 416.837 2187.52 413.826 2187.52 410.213V377.695C2187.52 353.607 2176.08 342.165 2152.6 342.165ZM2534.99 545.104V587.257C2534.99 590.871 2531.98 593.881 2528.36 593.881H2300.73C2297.12 593.881 2294.11 590.871 2294.11 587.257V563.772C2294.11 552.33 2298.33 542.093 2304.95 534.264L2468.14 348.187C2468.75 347.585 2469.35 346.381 2469.35 345.176C2469.35 342.767 2467.54 340.961 2465.13 340.961H2309.77V298.807C2309.77 295.194 2312.78 292.786 2316.39 292.786H2524.15C2527.76 292.786 2530.77 295.194 2530.77 298.807V332.53C2530.77 343.972 2526.56 354.209 2519.93 362.038L2365.17 537.878C2363.36 539.684 2363.36 542.093 2365.17 543.9C2365.77 545.104 2366.98 545.104 2367.58 545.104H2534.99ZM2598.22 593.881C2593.4 593.881 2589.79 589.666 2589.79 585.451V537.275H2637.36C2642.18 537.275 2645.79 541.491 2645.79 546.308V593.881H2598.22ZM2768.04 292.786C2771.65 292.786 2774.66 295.194 2774.66 298.807V593.881H2728.89C2725.28 593.881 2722.27 590.871 2722.27 587.257V292.786H2768.04ZM2768.04 157.895C2771.65 157.895 2774.66 160.905 2774.66 164.519V213.898H2728.89C2725.28 213.898 2722.27 210.887 2722.27 207.274V157.895H2768.04ZM3016.74 598.097H2937.25C2888.47 598.097 2849.33 558.954 2849.33 510.177V376.49C2849.33 328.315 2888.47 288.57 2937.25 288.57H3016.74C3065.52 288.57 3105.26 328.315 3105.26 376.49V510.177C3105.26 558.954 3065.52 598.097 3016.74 598.097ZM2937.25 338.552C2917.38 338.552 2901.72 354.811 2901.72 374.081V512.586C2901.72 532.458 2917.38 548.717 2937.25 548.717H3016.74C3036.61 548.717 3052.87 532.458 3052.87 512.586V374.081C3052.87 354.811 3036.61 338.552 3016.74 338.552H2937.25Z" fill="#2A478B"/>
</svg>
