<?xml version="1.0" encoding="UTF-8"?>
<svg width="1086px" height="1100px" viewBox="0 0 1086 1100" version="1.1" xmlns="http://www.w3.org/2000/svg" xmlns:xlink="http://www.w3.org/1999/xlink">
    <!-- Generator: Sketch 53.2 (72643) - https://sketchapp.com -->
    <title>AugmentedReality_5</title>
    <desc>Created with Sketch.</desc>
    <g id="Page-1" stroke="none" stroke-width="1" fill="none" fill-rule="evenodd">
        <g id="AugmentedReality_5" fill-rule="nonzero">
            <circle id="Oval" fill="#DEFFFA" cx="543" cy="542.524" r="542.524"></circle>
            <rect id="Rectangle" fill="#FFFFFF" x="202.223" y="227.871" width="463.861" height="211.664"></rect>
            <rect id="Rectangle" fill="#FFFFFF" x="668.335" y="77.004" width="299.482" height="146.364"></rect>
            <path d="M419.494,1070.041 L417.86,975.267 C417.86,975.267 359.035,906.638 331.256,806.962 C303.477,707.286 306.745,668.069 385.178,651.729 C388.446,521.006 391.714,365.773 391.714,365.773 C391.714,365.773 398.25,321.654 440.735,326.556 C483.22,331.458 488.122,360.871 488.122,388.65 C488.122,416.428 489.755,543.883 489.755,543.883 C489.755,543.883 556.751,514.471 587.797,565.126 C625.38,547.152 671.132,558.59 698.911,607.61 C734.86,592.904 762.639,592.904 765.907,648.461 C769.175,704.018 769.175,798.792 769.175,798.792 C769.175,798.792 749.567,898.468 721.788,929.515 C694.01,960.561 695.644,978.536 695.644,994.876 C695.644,1011.216 700.546,1060.237 700.546,1060.237 L698.865,1075.083 L554.154,1100 L419.494,1070.041 Z" id="Path" fill="#FFFFFF"></path>
            <g id="Group" transform="translate(185.000000, 68.000000)">
                <path d="M760.701,156.361 C760.496,156.361 760.298,156.361 760.092,156.352 L524.724,150.892 C510.186,150.558 498.674,138.497 499.008,123.96 C499.343,109.627 511.061,98.235 525.324,98.235 C525.53,98.235 525.735,98.235 525.94,98.244 L732.534,103.036 L729.071,50.267 C728.111,35.754 739.109,23.222 753.621,22.27 C767.85,21.122 780.674,32.3 781.618,46.821 L786.974,128.306 C787.463,135.678 784.823,142.914 779.714,148.254 C774.743,153.438 767.869,156.361 760.701,156.361 Z" id="Path" fill="#9EFF8D"></path>
                <path d="M455.145,382.704 C455.102,382.704 455.068,382.704 455.033,382.704 L349.7,382.232 C335.154,382.173 323.419,370.327 323.478,355.779 C323.538,341.285 335.317,329.566 349.811,329.566 C349.845,329.566 349.889,329.566 349.922,329.566 L428.81,329.918 L428.81,171.568 C428.81,157.021 440.596,145.235 455.143,145.235 C469.689,145.235 481.476,157.022 481.476,171.568 L481.476,356.37 C481.476,363.374 478.681,370.094 473.718,375.031 C468.792,379.944 462.107,382.704 455.145,382.704 Z" id="Path" fill="#9EFF8D"></path>
                <path d="M285.934,544.534 C271.919,544.534 260.27,533.493 259.643,519.367 L249.563,291.207 C248.921,276.677 260.175,264.376 274.705,263.733 C275.107,263.716 275.501,263.708 275.887,263.708 C289.902,263.708 301.553,274.748 302.177,288.875 L312.258,517.034 C312.901,531.565 301.646,543.865 287.116,544.507 C286.714,544.526 286.32,544.534 285.934,544.534 Z" id="Path" fill="#63EFFF"></path>
                <path d="M395.046,597.114 C381.957,597.114 370.617,587.368 368.955,574.046 L359.644,499.505 C357.836,485.07 368.079,471.912 382.506,470.112 C396.899,468.354 410.099,478.539 411.899,492.974 L421.208,567.515 C423.017,581.95 412.773,595.109 398.346,596.908 C397.233,597.046 396.135,597.114 395.046,597.114 Z" id="Path" fill="#63EFFF"></path>
                <path d="M485.867,628.008 C471.322,628.008 459.534,616.221 459.534,601.675 L459.534,535.842 C459.534,521.296 471.321,509.509 485.867,509.509 C500.414,509.509 512.2,521.296 512.2,535.842 L512.2,601.675 C512.2,616.22 500.414,628.008 485.867,628.008 Z" id="Path" fill="#63EFFF"></path>
                <path d="M508.771,987.739 C496.41,987.739 485.378,978.987 482.944,966.403 C474.157,921.023 489.99,877.366 502.669,848.479 C507.108,838.346 511.917,828.336 516.726,818.331 C527.099,796.756 536.897,776.371 542.717,755.121 C559.458,694.097 542.932,626.044 528.36,566.006 C524.922,551.871 533.597,537.633 547.733,534.204 C561.961,530.783 576.115,539.458 579.535,553.576 C594.827,616.537 613.848,694.902 593.515,769.05 C586.427,794.894 575.12,818.407 564.191,841.149 C559.647,850.604 555.095,860.05 550.895,869.626 C535.261,905.285 530.092,932.852 534.652,956.39 C537.412,970.672 528.085,984.489 513.804,987.249 C512.114,987.575 510.426,987.739 508.771,987.739 Z" id="Path" fill="#63EFFF"></path>
                <g fill="#2A1540">
                    <g transform="translate(113.000000, 242.000000)" id="Path">
                        <path d="M124.717,762.585 C117.996,762.585 112.261,757.468 111.628,750.636 C109.21,724.663 107.196,698.913 105.173,672.615 C104.692,666.383 102.815,662.491 98.487,658.719 C71.553,635.284 56.261,604.64 44.046,577.766 C22.375,530.114 9.354,489.063 3.081,448.578 C0.698,433.208 -0.014,418.182 0.98,403.935 C2.738,378.339 17.413,357.458 43.411,343.571 C55.249,337.245 67.953,332.95 81.007,328.768 C81.007,327.011 81.025,325.365 81.042,323.72 L81.076,319.613 L81.085,261.392 C81.095,196.717 81.102,146.768 81.059,70.76 C81.05,55.785 83.194,33.857 101.811,16.361 C117.867,1.267 147.191,-3.628 167.147,5.476 C188.2,15.093 199.283,32.846 199.214,56.822 C199.086,109.736 199.121,137.054 199.163,178.491 L199.197,217.228 C207.238,215.42 214.919,213.697 222.615,212.008 C249.72,206.008 273.576,215.111 293.472,239.001 C332.928,224.866 366.951,228.011 400.509,278.689 C400.776,278.629 401.049,278.568 401.324,278.509 C408.583,276.914 416.092,275.268 423.73,274.043 C437.565,271.806 449.926,274.583 459.458,282.075 C469.084,289.636 474.776,301.147 475.908,315.386 L476.533,323.221 C478.162,343.545 479.851,364.546 480.769,385.359 C481.634,404.74 482.131,424.148 482.638,443.545 C482.947,455.452 483.247,467.358 483.64,479.265 C485.123,524.447 471.862,568.825 443.094,614.917 C435.173,627.612 427.039,640.161 418.785,652.641 C414.978,658.411 413.307,663.785 413.384,670.069 C413.684,694.43 413.676,719.246 413.368,743.831 C413.272,751.048 407.402,756.834 400.201,756.834 C400.15,756.834 400.09,756.834 400.038,756.834 C392.761,756.741 386.94,750.774 387.034,743.506 C387.343,719.135 387.352,694.534 387.051,670.386 C386.915,658.83 390.111,648.279 396.823,638.121 C404.941,625.828 412.956,613.468 420.757,600.979 C446.661,559.456 458.627,519.931 457.324,480.131 C456.93,468.164 456.621,456.198 456.313,444.223 C455.816,424.987 455.319,405.752 454.47,386.524 C453.562,366.183 451.898,345.413 450.287,325.329 L449.661,317.477 C449.284,312.796 447.861,306.444 443.198,302.785 C438.655,299.209 432.371,299.329 427.924,300.033 C421.015,301.147 414.191,302.647 406.966,304.233 C403.631,304.962 400.297,305.69 396.961,306.385 C391.466,307.55 385.904,305.081 383.015,300.299 C351.556,248.19 327.502,253.23 294.381,266.877 C289.057,269.071 282.912,267.546 279.218,263.097 L273.414,256.067 C259.708,239.523 245.779,233.875 228.266,237.723 C219.84,239.575 211.413,241.469 202.533,243.466 L189.615,246.372 C185.801,247.22 181.859,246.355 178.763,244.006 C175.678,241.649 173.782,238.057 173.586,234.183 L173.303,229.323 C173.072,225.714 172.866,222.328 172.866,218.942 L172.831,178.517 C172.79,137.047 172.755,109.71 172.883,56.752 C172.917,43.139 167.783,34.714 156.22,29.433 C146.07,24.804 128.052,27.821 119.848,35.545 C111.113,43.756 107.384,54.283 107.393,70.741 C107.435,146.757 107.427,196.714 107.419,261.39 L107.376,324.034 C107.35,326.1 107.324,328.157 107.359,330.233 C107.487,338.281 104.478,348.902 89.339,353.753 C76.91,357.722 65.827,361.451 55.823,366.791 C37.736,376.46 28.384,389.208 27.244,405.759 C26.395,418.051 27.012,431.099 29.104,444.538 C35.002,482.59 47.363,521.455 68.013,566.861 C81.755,597.085 95.135,620.889 115.768,638.847 C125.308,647.145 130.426,657.535 131.428,670.598 C133.443,696.777 135.448,722.424 137.84,748.2 C138.518,755.442 133.194,761.855 125.95,762.524 C125.54,762.568 125.129,762.585 124.717,762.585 Z"></path>
                        <path d="M186.735,317.049 C179.467,317.049 173.569,311.151 173.569,303.883 L173.569,233.524 C173.569,226.256 179.467,220.358 186.735,220.358 C194.005,220.358 199.902,226.256 199.902,233.524 L199.902,303.883 C199.902,311.151 194.005,317.049 186.735,317.049 Z"></path>
                        <path d="M92.967,413.998 C85.698,413.998 79.8,408.101 79.8,400.831 L79.8,330.472 C79.8,323.204 85.698,317.306 92.967,317.306 C100.236,317.306 106.133,323.204 106.133,330.472 L106.133,400.831 C106.133,408.101 100.236,413.998 92.967,413.998 Z"></path>
                        <path d="M289.727,346.914 C282.459,346.914 276.56,341.017 276.56,333.747 L276.56,252.751 C276.56,245.482 282.459,239.584 289.727,239.584 C296.996,239.584 302.893,245.483 302.893,252.751 L302.893,333.747 C302.893,341.016 296.996,346.914 289.727,346.914 Z"></path>
                        <path d="M396.08,378.819 C388.811,378.819 382.913,372.922 382.913,365.652 L382.913,295.293 C382.913,288.025 388.81,282.127 396.08,282.127 C403.349,282.127 409.246,288.025 409.246,295.293 L409.246,365.652 C409.246,372.921 403.349,378.819 396.08,378.819 Z"></path>
                    </g>
                    <path d="M480.475,379.321 L346.915,379.321 C339.646,379.321 333.748,373.422 333.748,366.154 C333.748,358.885 339.645,352.988 346.915,352.988 L467.308,352.988 L467.308,165.732 L32.787,165.732 L32.787,352.988 L162.687,352.988 C169.956,352.988 175.853,358.885 175.853,366.154 C175.853,373.422 169.956,379.321 162.687,379.321 L19.621,379.321 C12.352,379.321 6.454,373.422 6.454,366.154 L6.454,152.566 C6.454,145.297 12.351,139.4 19.621,139.4 L480.476,139.4 C487.745,139.4 493.642,145.297 493.642,152.566 L493.642,366.154 C493.641,373.422 487.745,379.321 480.475,379.321 Z" id="Path"></path>
                    <path d="M779.834,165.732 L480.475,165.732 C473.205,165.732 467.308,159.835 467.308,152.565 L467.308,13.82 C467.308,6.551 473.205,0.654 480.475,0.654 L779.833,0.654 C787.103,0.654 792.999,6.551 792.999,13.82 L792.999,152.565 C793,159.835 787.104,165.732 779.834,165.732 Z M493.641,139.4 L766.667,139.4 L766.667,26.987 L493.641,26.987 L493.641,139.4 Z" id="Shape"></path>
                    <g transform="translate(541.000000, 219.000000)" id="Path">
                        <path d="M238.834,160.321 L13.169,160.321 C5.9,160.321 0.002,154.422 0.002,147.154 C0.002,139.885 5.9,133.988 13.169,133.988 L238.834,133.988 C246.104,133.988 252,139.885 252,147.154 C252,154.422 246.104,160.321 238.834,160.321 Z"></path>
                        <path d="M238.834,93.75 L13.169,93.75 C5.9,93.75 0.002,87.853 0.002,80.584 C0.002,73.314 5.9,67.417 13.169,67.417 L238.834,67.417 C246.104,67.417 252,73.314 252,80.584 C252,87.854 246.104,93.75 238.834,93.75 Z"></path>
                        <path d="M238.834,27.173 L13.169,27.173 C5.9,27.173 0.002,21.275 0.002,14.007 C0.002,6.736 5.9,0.84 13.169,0.84 L238.834,0.84 C246.104,0.84 252,6.737 252,14.007 C252,21.275 246.104,27.173 238.834,27.173 Z"></path>
                    </g>
                    <g transform="translate(0.000000, 3.000000)" id="Path">
                        <path d="M402.727,93.359 L13.877,93.359 C6.608,93.359 0.71,87.462 0.71,80.193 C0.71,72.924 6.607,67.026 13.877,67.026 L402.727,67.026 C409.996,67.026 415.893,72.924 415.893,80.193 C415.893,87.462 409.996,93.359 402.727,93.359 Z"></path>
                        <path d="M402.727,26.79 L13.877,26.79 C6.608,26.79 0.71,20.893 0.71,13.624 C0.71,6.355 6.607,0.457 13.877,0.457 L402.727,0.457 C409.996,0.457 415.893,6.355 415.893,13.624 C415.893,20.892 409.996,26.79 402.727,26.79 Z"></path>
                    </g>
                </g>
            </g>
        </g>
    </g>
</svg>