<?xml version="1.0" encoding="UTF-8"?>
<svg width="1039px" height="1039px" viewBox="0 0 1039 1039" version="1.1" xmlns="http://www.w3.org/2000/svg" xmlns:xlink="http://www.w3.org/1999/xlink">
    <!-- Generator: Sketch 53.2 (72643) - https://sketchapp.com -->
    <title>AugmentedReality_22</title>
    <desc>Created with Sketch.</desc>
    <g id="Page-1" stroke="none" stroke-width="1" fill="none" fill-rule="evenodd">
        <g id="AugmentedReality_22" fill-rule="nonzero">
            <circle id="Oval" fill="#DEFFFA" cx="519.5" cy="519.5" r="519.5"></circle>
            <g id="Group" transform="translate(26.000000, 23.000000)">
                <path d="M256.597297,102.561166 L256.597297,32.5138405 C256.597297,32.5138405 262.891694,7.55639264 314.599853,9.17197546 C366.308956,10.7885031 667.718165,10.7885031 667.718165,10.7885031 C667.718165,10.7885031 703.693166,25.3315828 703.693166,46.3369939 C703.693166,67.3424049 710.36927,839.71665 710.36927,839.71665 C710.36927,839.71665 716.939555,909.197104 660.382575,910.813632 C603.82654,912.429215 295.241417,909.197104 295.241417,909.197104 C295.241417,909.197104 245.090323,904.350356 243.47468,867.185337 C241.858091,830.020319 256.597297,102.561166 256.597297,102.561166 Z" id="Path" fill="#63EFFF"></path>
                <rect id="Rectangle" fill="#FFFFFF" x="258.127907" y="109.354172" width="445.989483" height="654.416859"></rect>
                <path d="M655.162439,763.504601 L655.162439,849.005779 C610.751133,846.949926 566.527845,849.512184 523.281502,856.558393 C508.380732,858.986491 498.274927,873.033558 500.703117,887.925264 C502.892267,901.331767 514.48333,910.869374 527.641851,910.859926 C529.101599,910.859926 530.586858,910.743718 532.073061,910.503742 C580.469622,902.621399 630.243733,900.932123 680.011229,905.468037 C687.617038,906.189853 695.251191,903.618147 700.918227,898.440724 C706.592821,893.263301 709.823164,885.932712 709.823164,878.255387 L709.823164,763.504601 L655.162439,763.504601 Z" id="Path" fill="#9EFF8D"></path>
                <path d="M561.109297,57.226589 C580.111535,62.7686994 599.168573,68.1284663 618.234114,73.4872883 C630.54702,76.9480368 642.858982,80.4135092 655.163384,83.9233865 L655.163384,759.203939 L709.823164,759.203939 L709.823164,63.3639141 C709.823164,51.2168098 701.807303,40.528454 690.143489,37.1291166 C671.141251,31.5870061 652.085158,26.2272393 633.019617,20.8674724 C614.133591,15.5568344 595.245677,10.2499755 576.412561,4.75604908 C561.892554,0.503570552 546.751799,8.85736196 542.52467,23.3399755 C538.299431,37.8282577 546.617634,52.9996196 561.109297,57.226589 Z" id="Path" fill="#FFFFFF"></path>
                <path d="M561.109297,57.226589 C580.111535,62.7686994 599.168573,68.1284663 618.234114,73.4872883 C630.54702,76.9480368 642.858982,80.4135092 655.163384,83.9233865 L655.163384,110.917791 L709.823164,110.917791 L709.823164,63.3639141 C709.823164,51.2168098 701.807303,40.528454 690.143489,37.1291166 C671.141251,31.5870061 652.085158,26.2272393 633.019617,20.8674724 C614.133591,15.5568344 595.245677,10.2499755 576.412561,4.75604908 C561.892554,0.503570552 546.751799,8.85736196 542.52467,23.3399755 C538.299431,37.8282577 546.617634,52.9996196 561.109297,57.226589 Z" id="Path" fill="#9EFF8D"></path>
                <path d="M543.358947,815.548098 L415.254459,815.548098 C407.301901,815.548098 400.856333,821.993423 400.856333,829.946626 C400.856333,837.899828 407.301901,844.344209 415.254459,844.344209 L543.358947,844.344209 C551.311504,844.344209 557.757073,837.898883 557.757073,829.946626 C557.757073,821.993423 551.311504,815.548098 543.358947,815.548098 Z" id="Path" fill="#2A1540"></path>
                <path d="M717.886265,181.851325 L717.886265,49.4878528 C717.886265,22.4301472 695.873828,0.417595092 668.815102,0.417595092 L289.799249,0.417595092 C262.740523,0.417595092 240.728085,22.4301472 240.728085,49.4878528 L240.728085,266.882945 C75.0896418,343.825313 -17.9204182,453.880515 3.32010068,548.83238 C4.02115779,551.970012 5.72089061,554.609742 7.98468151,556.560724 C7.15890803,559.427202 7.17024589,562.56011 8.29741723,565.570196 C14.776999,582.881497 25.1709739,599.094957 39.1751094,613.751411 C42.0039032,616.709534 45.7964143,618.19946 49.586091,618.19946 C53.163183,618.19946 56.744999,616.87865 59.536,614.212466 C65.2833456,608.71665 65.4912062,599.600417 59.9961278,593.853288 C48.6913456,582.03119 40.3740871,569.11881 35.2607164,555.468552 C34.3810881,553.12265 32.9137812,551.194344 31.1403524,549.667571 C31.7932236,547.416147 31.9670707,544.994663 31.4190745,542.545779 C13.7424201,463.501264 95.4250223,369.132331 240.728085,298.741104 L240.728085,668.014209 C240.362439,667.96508 239.98829,667.927288 239.625479,667.87816 C222.402339,665.498245 205.720581,662.39935 190.046002,658.671227 C182.267291,656.803387 174.539601,661.606675 172.705704,669.339742 C170.861413,677.078479 175.642207,684.838945 183.376511,686.678442 C199.951504,690.627644 217.54407,693.894712 235.676128,696.403117 C237.339013,696.632699 239.055752,696.788589 240.728085,697.00589 L240.728085,874.74362 C240.728085,901.801325 262.739578,923.812933 289.799249,923.812933 L668.815102,923.812933 C695.873828,923.812933 717.886265,901.801325 717.886265,874.74362 L717.886265,634.758712 L742.251307,616.349571 C747.201224,612.61011 749.196685,606.125104 747.217286,600.254209 C745.236941,594.399374 739.747531,590.461509 733.573127,590.461509 L733.516438,590.461509 L717.88532,590.526699 L717.88532,210.814663 C845.226393,224.426184 929.449619,271.577583 944.393851,338.373902 C959.973003,408.055595 898.342335,490.431423 779.522602,558.736564 C772.627299,562.695215 770.252964,571.496834 774.220267,578.392822 C776.879938,583.027939 781.727814,585.613816 786.709855,585.613816 C789.146548,585.613816 791.61631,585.00065 793.876321,583.695902 C924.201138,508.782933 990.974467,414.725779 972.49188,332.086356 C954.612089,252.115951 859.831435,196.439755 717.886265,181.851325 Z M668.815102,895.016822 L289.799249,895.016822 C278.617293,895.016822 269.523392,885.922319 269.523392,874.742675 L269.523392,773.177313 L689.090958,773.177313 L689.090958,874.742675 C689.090958,885.922319 679.995167,895.016822 668.815102,895.016822 Z M269.523392,744.382147 L269.523392,700.084 C290.587229,701.904601 312.182056,702.909853 334.3211,702.909853 C400.182676,702.909853 470.24965,694.879178 541.255775,678.996393 C563.359861,674.054221 585.115307,668.331656 606.510776,662.04789 L614.230908,688.602969 C615.552712,693.147387 619.029653,696.757411 623.523222,698.247337 C625.001866,698.737681 626.531531,698.979546 628.056472,698.979546 C631.148871,698.979546 634.203477,697.982798 636.734652,696.072442 L689.090958,656.515227 L689.090958,744.383092 L269.523392,744.383092 L269.523392,744.382147 Z M604.974498,590.983975 C600.45164,591.000982 596.205615,593.143755 593.500592,596.760393 C590.789901,600.382699 589.939562,605.062221 591.205622,609.403509 L598.47224,634.399693 C577.657835,640.516233 556.486288,646.084798 534.967992,650.898479 C441.997615,671.688479 350.937665,678.598638 269.523392,671.24254 L269.523392,125.569521 L689.090958,125.569521 L689.090958,590.643853 L604.974498,590.983975 Z M289.799249,29.211816 L668.815102,29.211816 C679.995167,29.211816 689.090958,38.306319 689.090958,49.486908 L689.090958,96.7743558 L269.523392,96.7743558 L269.523392,49.4878528 C269.523392,38.306319 278.617293,29.211816 289.799249,29.211816 Z" id="Shape" fill="#2A1540"></path>
                <path d="M142.173816,644.228294 C125.788732,638.081521 110.822769,631.006025 97.6907028,623.195485 C90.8520891,619.133853 82.0142343,621.36638 77.9552836,628.205681 C73.8887744,635.044037 76.1327241,643.879669 82.9666137,647.940356 C97.5622072,656.622933 114.079566,664.441031 132.061398,671.189632 C133.726172,671.81508 135.435353,672.110798 137.117135,672.110798 C142.94479,672.110798 148.42853,668.545178 150.598784,662.764982 C153.39262,655.324798 149.61995,647.022969 142.173816,644.228294 Z" id="Path" fill="#2A1540"></path>
            </g>
        </g>
    </g>
</svg>